<?xml version="1.0" encoding="UTF-8"?>
<svg id="Layer_2" xmlns="http://www.w3.org/2000/svg" version="1.1" xmlns:xlink="http://www.w3.org/1999/xlink" viewBox="0 0 185.44 70.87">
  <!-- Generator: Adobe Illustrator 29.8.1, SVG Export Plug-In . SVG Version: 2.1.1 Build 2)  -->
  <defs>
    <style>
      .st0 {
        fill: url(#linear-gradient2);
      }

      .st1 {
        clip-path: url(#clippath-4);
      }

      .st2 {
        fill: #fff;
      }

      .st3 {
        fill: url(#linear-gradient1);
      }

      .st4 {
        fill: none;
      }

      .st5 {
        fill: #017b3f;
      }

      .st6 {
        fill: url(#radial-gradient);
      }

      .st7 {
        fill: url(#radial-gradient1);
      }

      .st8 {
        clip-path: url(#clippath-1);
      }

      .st9 {
        fill: #575a5b;
      }

      .st10 {
        clip-path: url(#clippath-5);
      }

      .st11 {
        fill: #18171d;
      }

      .st12 {
        clip-path: url(#clippath-3);
      }

      .st13 {
        fill: #a2a9ab;
      }

      .st14 {
        fill: #0bac5c;
      }

      .st15 {
        fill: url(#linear-gradient3);
      }

      .st16 {
        fill: #404041;
      }

      .st17 {
        clip-path: url(#clippath-2);
      }

      .st18 {
        fill: url(#linear-gradient);
      }

      .st19 {
        fill: #19171b;
      }

      .st20 {
        clip-path: url(#clippath);
      }

      .st21 {
        fill: #137e3f;
      }
    </style>
    <clipPath id="clippath">
      <polygon class="st4" points="145.81 15.46 134.52 15.46 134.52 26.77 126.53 34.76 134.52 42.75 134.52 54.31 146.07 54.31 154.24 62.47 162.42 54.31 173.72 54.31 173.72 43 181.71 35.01 173.72 27.03 173.72 15.46 162.16 15.46 153.99 7.29 145.81 15.46"/>
    </clipPath>
    <radialGradient id="radial-gradient" cx="-637.88" cy="-240.93" fx="-637.88" fy="-240.93" r=".26" gradientTransform="translate(-28618.78 76244.98) rotate(90) scale(119.48)" gradientUnits="userSpaceOnUse">
      <stop offset="0" stop-color="#f3d238"/>
      <stop offset="1" stop-color="#c12832"/>
    </radialGradient>
    <clipPath id="clippath-1">
      <path class="st4" d="M152.78,16.11c2.99-1.24,6.42.18,7.66,3.17,1.24,2.99-.18,6.42-3.17,7.66s-6.42-.18-7.66-3.17.18-6.42,3.17-7.66Z"/>
    </clipPath>
    <radialGradient id="radial-gradient1" cx="-620.41" cy="-207.49" fx="-620.41" fy="-207.49" r=".26" gradientTransform="translate(14145.22 4699.4) scale(22.55)" gradientUnits="userSpaceOnUse">
      <stop offset="0" stop-color="#f3d238"/>
      <stop offset="1" stop-color="#cd4632"/>
    </radialGradient>
    <clipPath id="clippath-2">
      <path class="st4" d="M137.94,36.05s1.15,2.26,6.67,1.75,9.37,1.3,10.43,4.11v-16.85s-1.75-2.36-5.61-1.75c-2.65.31-3.56-.66-3.56-.66l-7.92,13.39h0Z"/>
    </clipPath>
    <linearGradient id="linear-gradient" x1="-621.53" y1="-222.81" x2="-621.27" y2="-222.81" gradientTransform="translate(-6789.68 19376.86) rotate(90) scale(31.13)" gradientUnits="userSpaceOnUse">
      <stop offset="0" stop-color="#e2e4e3"/>
      <stop offset=".52" stop-color="#8f9497"/>
      <stop offset="1" stop-color="#e2e4e3"/>
    </linearGradient>
    <clipPath id="clippath-3">
      <path class="st4" d="M160.14,23.38c-2.46-.5-4.91.35-5.11,1.71v16.85s1.4-3.91,5.67-3.91,8.57.76,11.03-1.71l-7.82-13.64s-1.3,1.21-3.76.7h-.01Z"/>
    </clipPath>
    <linearGradient id="linear-gradient1" x1="-632.48" y1="-225.98" x2="-632.21" y2="-225.98" gradientTransform="translate(27118.65 9667.89) scale(42.64)" gradientUnits="userSpaceOnUse">
      <stop offset="0" stop-color="#e2e4e3"/>
      <stop offset=".52" stop-color="#8f9497"/>
      <stop offset="1" stop-color="#e2e4e3"/>
    </linearGradient>
    <clipPath id="clippath-4">
      <polygon class="st4" points="142.99 23.62 135.18 37.21 137.94 36.06 145.85 22.68 142.99 23.62"/>
    </clipPath>
    <linearGradient id="linear-gradient2" x1="-724.9" y1="-285.93" x2="-724.64" y2="-285.93" gradientTransform="translate(3420.15 -8282.2) rotate(-90) scale(11.47)" gradientUnits="userSpaceOnUse">
      <stop offset="0" stop-color="#e2e4e3"/>
      <stop offset=".52" stop-color="#8f9497"/>
      <stop offset="1" stop-color="#e2e4e3"/>
    </linearGradient>
    <clipPath id="clippath-5">
      <polygon class="st4" points="171.72 36.3 174.38 37.56 166.26 23.52 163.9 22.68 171.72 36.3"/>
    </clipPath>
    <linearGradient id="linear-gradient3" x1="-641.36" y1="-120.01" x2="-641.1" y2="-120.01" gradientTransform="translate(5177.19 967.4) scale(7.81)" gradientUnits="userSpaceOnUse">
      <stop offset="0" stop-color="#e2e4e3"/>
      <stop offset=".52" stop-color="#8f9497"/>
      <stop offset="1" stop-color="#e2e4e3"/>
    </linearGradient>
  </defs>
  <g>
    <rect class="st5" x="2.12" y="46.26" width="111.05" height="16.94" rx="1.85" ry="1.85"/>
    <g>
      <g class="st20">
        <rect class="st6" x="118.74" y="-.52" width="70.78" height="70.78" transform="translate(68.46 167.66) rotate(-69.92)"/>
      </g>
      <g>
        <rect class="st2" x="154.63" y="8.15" width=".31" height="9.13"/>
        <rect class="st2" x="153.52" y="14.4" width="8.5" height=".31" transform="translate(80.96 153.12) rotate(-66.27)"/>
        <rect class="st2" x="156.68" y="16.25" width="6.33" height=".31" transform="translate(42.54 126.22) rotate(-48.97)"/>
        <rect class="st2" x="158.63" y="17.84" width="8.26" height=".31" transform="translate(12.23 82.45) rotate(-29.49)"/>
        <rect class="st2" x="151.71" y="10.31" width=".31" height="8.5" transform="translate(6.98 62.35) rotate(-23.73)"/>
        <rect class="st2" x="149.63" y="13.23" width=".31" height="6.33" transform="translate(26.03 102.35) rotate(-41.03)"/>
        <rect class="st2" x="146.7" y="13.87" width=".31" height="8.26" transform="translate(58.9 136.96) rotate(-60.51)"/>
        <rect class="st2" x="159.41" y="20.42" width="14.63" height=".31" transform="translate(-1.26 21.88) rotate(-7.48)"/>
        <rect class="st2" x="143.17" y="13.16" width=".31" height="15.04" transform="translate(102.31 159.56) rotate(-81.76)"/>
        <rect class="st2" x="170.69" y="22.46" width=".6" height="6.95" transform="translate(106.33 186.33) rotate(-76.67)"/>
        <rect class="st2" x="135.5" y="25.48" width="7.32" height=".6" transform="translate(-1.92 37.04) rotate(-15.06)"/>
        <path class="st2" d="M136.69,34.07c-2.5,1.38-6.3,3.46-6.53,3.56l.11.27.11.27c.25-.1,5.55-3.01,6.6-3.6l-.3-.53h.01Z"/>
        <rect class="st2" x="134.07" y="42.1" width="9.02" height=".6" transform="translate(25.45 132.97) rotate(-55.69)"/>
        <rect class="st2" x="139.63" y="47.29" width="14.04" height=".6" transform="translate(58.27 173.92) rotate(-73)"/>
        <rect class="st2" x="154.52" y="43.02" width=".6" height="19.52" transform="translate(-.27 .78) rotate(-.29)"/>
        <rect class="st2" x="162.83" y="41.62" width=".6" height="13.51" transform="translate(-7 51.26) rotate(-17.49)"/>
        <rect class="st2" x="171.28" y="38.44" width=".6" height="8.89" transform="translate(4.69 101.42) rotate(-33.36)"/>
        <rect class="st2" x="175.85" y="31.96" width=".6" height="8.16" transform="translate(55.35 169.21) rotate(-59.35)"/>
        <path class="st14" d="M142.99,23.62l-.7.25-8.22,13.68,18.85,6.27s1.05.55,2.1.55,20.25-6.82,20.25-6.82l-8.07-13.93-.95-.1-23.26.1h.01Z"/>
      </g>
      <g class="st8">
        <rect class="st7" x="149.17" y="15.65" width="11.73" height="11.73"/>
      </g>
      <path class="st13" d="M174.38,37.56l-16.74,5.11s-1.4,1.05-2.61-.76c0,0-.86,1.7-2.46.86l-17.4-5.57,7.82-13.58,2.86-.95,8.57,4.97,9.47-4.97s2.36.7,2.36.86,8.12,14.04,8.12,14.04"/>
      <g class="st17">
        <rect class="st18" x="135.5" y="22.18" width="21.96" height="20.23" transform="translate(88.85 170.79) rotate(-79.84)"/>
      </g>
      <g class="st12">
        <rect class="st3" x="154.56" y="22.27" width="17.63" height="20.05" transform="translate(-1.4 8.16) rotate(-2.85)"/>
      </g>
      <g class="st1">
        <rect class="st0" x="131.57" y="21.74" width="17.89" height="16.4" transform="translate(45.92 138.08) rotate(-60.85)"/>
      </g>
      <g class="st10">
        <rect class="st15" x="160.91" y="21.05" width="16.47" height="18.12" transform="translate(7.19 87.45) rotate(-29.59)"/>
      </g>
      <g>
        <path class="st2" d="M156.86,40.88s2.96-1.6,4.23-1.66c0,0-3.28-.82-4.23,1.66"/>
        <path class="st2" d="M153.22,40.88s-2.96-1.6-4.24-1.66c0,0,3.28-.82,4.24,1.66"/>
        <path class="st2" d="M154.54,48.02s-.49-2.51-3.62-3.39c-2.54-.71-6.81-.35-8.33-.19-.35.03-.66.25-.8.57l-.26.55,13.02,2.47h-.01Z"/>
        <path class="st9" d="M154.64,48.11l-13.22-2.5.31-.64c.16-.34.48-.57.87-.61,1.68-.18,5.84-.52,8.37.2,3.15.88,3.67,3.42,3.67,3.45l.02.11h-.01ZM141.63,45.5l12.82,2.42c-.14-.49-.87-2.48-3.54-3.22-2.5-.7-6.64-.36-8.31-.19-.33.03-.6.23-.75.53l-.22.46h0Z"/>
        <path class="st2" d="M154.6,48.58s-.13-3.03-3.82-3.03h-9.28s-.31.18-.41.66l13.49,2.38h.01Z"/>
        <path class="st9" d="M154.68,48.68h-.09l-13.56-2.41v-.08c.12-.5.44-.69.45-.7h9.32c3.72,0,3.88,3.07,3.88,3.1v.1h0ZM141.22,46.15l13.31,2.35c-.05-.52-.48-2.86-3.73-2.86h-9.25s-.24.19-.33.52"/>
        <path class="st2" d="M154.6,48.58s.47-2.25-4.83-2.55c-5.32-.31-8.67,0-8.67,0,0,0-1.05.45-1.21,1.33s14.71,1.23,14.71,1.23"/>
        <path class="st9" d="M154.67,48.66h-.07c-1.44-.03-14.07-.35-14.75-1.17-.04-.05-.04-.1-.04-.13.15-.91,1.21-1.37,1.25-1.38h.02s3.42-.31,8.68,0c2.93.16,4.1.93,4.57,1.55.44.57.34,1.07.33,1.1v.07h0v-.02h0ZM141.11,46.11c-.11.05-1.02.48-1.15,1.27.54.67,10.63,1.04,14.57,1.14,0-.14,0-.52-.32-.92-.45-.59-1.59-1.33-4.46-1.48-5.09-.29-8.42-.02-8.65,0"/>
        <path class="st2" d="M154.68,49.24l-16.57-.43c.39-1.1,1.43-1.84,2.6-1.85l11.99-.16c.96,0,1.79.71,1.9,1.69l.09.76h-.01Z"/>
        <path class="st9" d="M154.77,49.32l-16.76-.43.03-.1c.41-1.12,1.47-1.89,2.66-1.91l11.99-.15h.02c1.01,0,1.84.75,1.95,1.74l.1.84h0ZM138.22,48.75l16.38.42-.08-.67c-.1-.92-.88-1.61-1.81-1.61h0l-11.99.16c-1.1,0-2.08.7-2.49,1.71"/>
        <path class="st2" d="M154.75,48.02s.49-2.51,3.62-3.39c2.54-.71,6.81-.35,8.33-.19.35.03.66.25.8.57l.26.55-13.02,2.47h.01Z"/>
        <path class="st9" d="M154.65,48.11l.02-.11s.54-2.57,3.67-3.45c2.52-.7,6.69-.37,8.37-.2.37.04.7.27.87.61l.31.64-13.22,2.5h-.01ZM162.48,44.27c-1.45,0-2.94.1-4.09.43-2.68.75-3.4,2.73-3.54,3.22l12.82-2.42-.22-.46c-.14-.3-.42-.49-.75-.53-.9-.1-2.52-.24-4.22-.24"/>
        <path class="st2" d="M154.68,48.58s.13-3.03,3.82-3.03h9.28s.31.18.41.66l-13.49,2.38h-.01Z"/>
        <path class="st9" d="M154.6,48.68v-.1s.18-3.1,3.89-3.1h9.31s.33.21.44.71v.08l-13.64,2.41h0ZM158.5,45.63c-3.25,0-3.67,2.35-3.73,2.86l13.31-2.35c-.09-.33-.27-.47-.33-.52h-9.25Z"/>
        <path class="st2" d="M154.68,48.58s-.47-2.25,4.83-2.55c5.32-.31,8.67,0,8.67,0,0,0,1.05.45,1.21,1.33s-14.71,1.23-14.71,1.23"/>
        <path class="st9" d="M154.61,48.66v-.05s-.12-.53.32-1.1c.47-.61,1.64-1.38,4.57-1.55,5.26-.3,8.65,0,8.68,0h.02s1.1.48,1.25,1.39c0,.03,0,.09-.04.13-.68.82-13.31,1.14-14.75,1.17h-.07.01ZM164.11,45.97c-1.28,0-2.83.03-4.59.13-2.86.16-4.01.9-4.46,1.48-.31.41-.33.78-.32.92,3.94-.1,14.03-.47,14.57-1.12-.12-.79-1.03-1.23-1.14-1.28-.15,0-1.63-.13-4.06-.13"/>
        <path class="st2" d="M154.6,49.24l16.57-.43c-.39-1.1-1.43-1.84-2.6-1.85l-11.99-.16c-.96,0-1.79.71-1.9,1.69l-.09.76h.01Z"/>
        <path class="st9" d="M154.53,49.32l.1-.84c.11-1,.95-1.74,1.95-1.74h.02l11.99.15c1.2,0,2.26.78,2.66,1.91l.03.1-16.76.43h0ZM156.58,46.87c-.92,0-1.7.69-1.81,1.61l-.08.67,16.38-.42c-.41-1.01-1.39-1.69-2.49-1.71l-11.99-.16h-.02.01Z"/>
        <path class="st2" d="M140.09,53.15c-1.16,0-2.1-.94-2.1-2.1s.94-2.1,2.1-2.1h29.58c1.16,0,2.1.94,2.1,2.1s-.94,2.1-2.1,2.1h-29.58Z"/>
        <path class="st14" d="M169.67,49.24c1,0,1.81.81,1.81,1.81s-.81,1.81-1.81,1.81h-29.58c-1,0-1.81-.81-1.81-1.81s.81-1.81,1.81-1.81h29.58ZM169.67,48.64h-29.58c-1.33,0-2.4,1.07-2.4,2.4s1.07,2.4,2.4,2.4h29.58c1.33,0,2.4-1.07,2.4-2.4s-1.07-2.4-2.4-2.4"/>
        <path class="st2" d="M176.08,26.32v-12.56h-12.56l-7.53-7.53h-2.7l-7.53,7.53h-12.3v12.3l-7.41,7.42v2.55l7.41,7.42v12.55h12.56l7.47,7.47h2.83l7.47-7.47h12.3v-12.3l7.75-7.75v-1.89l-7.75-7.75h0ZM173.53,53.45h-10.8l-7.82,7.82-7.82-7.82h-11.06v-11.06l-4.7-4.7-.45-.44-2.49-2.49,7.64-7.64v-10.8h10.8l1.44-1.43.21-.21,2.27-2.27.23-.23,3.66-3.66.02-.02.29.27,3.63,3.63,2.44,2.44.21.21,1.26,1.26h11.06v11.06l7.64,7.64-2.29,2.29-.44.44-4.91,4.9v10.8s-.02,0-.02,0Z"/>
        <polygon class="st21" points="176.46 26.16 176.46 13.38 163.68 13.38 156.91 6.6 183.46 6.6 183.46 33.17 176.46 26.16"/>
        <path class="st19" d="M183.09,6.98v25.27l-6.25-6.25v-13h-13l-6.03-6.03h25.28ZM183.84,6.23h-27.84l7.53,7.53h12.56v12.56l7.75,7.75V6.23h-.01Z"/>
        <polygon class="st21" points="126.43 6.6 152.39 6.6 145.61 13.38 133.09 13.38 133.09 25.9 126.43 32.57 126.43 6.6"/>
        <path class="st19" d="M151.49,6.98l-6.03,6.03h-12.74v12.74l-5.91,5.91V6.98h24.68ZM153.3,6.23h-27.24v27.24l7.42-7.42v-12.3h12.3l7.53-7.53h-.01Z"/>
        <polygon class="st21" points="126.43 63.1 126.43 36.94 133.09 43.61 133.09 56.39 145.88 56.39 152.59 63.1 126.43 63.1"/>
        <path class="st19" d="M126.81,37.85l5.91,5.92v12.99h13l5.96,5.96h-24.88v-24.88h0ZM126.05,36.03v27.44h27.44l-7.47-7.47h-12.56v-12.55l-7.41-7.42h0Z"/>
        <polygon class="st21" points="157.23 63.1 163.94 56.39 176.46 56.39 176.46 43.87 183.46 36.86 183.46 63.1 157.23 63.1"/>
        <path class="st19" d="M183.09,37.77v24.95h-24.95l5.96-5.96h12.74v-12.74l6.25-6.25h0ZM183.84,35.96l-7.75,7.75v12.3h-12.3l-7.47,7.47h27.52v-27.52h0Z"/>
        <path class="st11" d="M174.38,27.03v-11.56h-11.56l-1.05-1.05-.21-.21-2.41-2.41-4.5-4.5-6.95,6.95-1.23,1.23h-11.3v11.3l-7.99,7.99,3.35,3.35,4.64,4.64v11.56h11.56l7.84,7.84h0l.33.33.26-.27,7.9-7.9h11.3v-11.29l4.81-4.81,3.18-3.18-7.99-7.99h.01ZM173.53,53.45h-10.8l-7.82,7.82-7.82-7.82h-11.06v-11.06l-4.7-4.7-.45-.44-2.49-2.49,7.64-7.64v-10.8h10.8l1.44-1.43.21-.21,2.27-2.27.23-.23,3.66-3.66.02-.02.29.27,3.63,3.63,2.44,2.44.21.21,1.26,1.26h11.06v11.06l7.64,7.64-2.29,2.29-.44.44-4.91,4.9v10.8s-.02,0-.02,0Z"/>
        <path class="st11" d="M157.12,31.46c.25.03.47.09.68.16-.02.18-.07.36-.14.56-.22-.07-.45-.12-.68-.15l.14-.56h0ZM158.47,32c.38.33.69.71.89,1.17.09.22.13.52.12.81-.11.45-.5.87-.91,1.03-.61.25-1.17.02-1.41-.56-.12-.3-.16-.65-.11-1.07h.21c-.02.26,0,.47.05.6.26.61.84.46,1.05.38.32-.13.62-.45.73-.7.02-.05.02-.12,0-.18-.09-.21-.33-.48-.78-.82.02-.21.07-.42.12-.65h.04v-.02h-.01Z"/>
        <path class="st11" d="M158.48,30.53l-.26-.16c-.08-.24-.02-.41.15-.48s.46-.09.76-.21c.15-.07.26-.18.34-.32h.04l.02.36c-.08.15-.2.25-.33.31-.25.11-.47.14-.58.19-.03.01-.05.02-.05.03l-.03.26-.05.02h0ZM160.16,33.42c-.05-.22-.14-.45-.26-.73-.27-.65-.57-1.27-.92-1.89.07-.2.13-.37.21-.54h.07c.34.61.6,1.22.84,1.8.2.46.31.79.27.92-.02.14-.05.3-.11.46l-.09-.02h-.01Z"/>
        <path class="st11" d="M162.57,32.37l-.05.02c-.13.05-.24.07-.35.09.13.31.12.55.08.76-.07.33-.2.59-.46.7-.23.1-.55.13-.96.07v-.18c.14,0,.24-.04.31-.07.26-.11.45-.31.57-.56.13-.26.16-.53.13-.72-.19-.1-.38-.23-.58-.41,0-.2,0-.37.04-.54l.04-.02c.31.27.58.44.93.3l.04-.02.25.59h.01Z"/>
        <path class="st11" d="M162.04,29.14c.2.05.37.13.52.22-.03.15-.1.3-.19.44-.18-.07-.34-.13-.52-.2l.19-.45h0ZM162.37,31.75c.15-.07.29-.13.38-.21-.08-.11-.15-.23-.22-.37-.14-.33-.1-.64.03-.93.1-.21.22-.37.37-.44.13-.05.26-.02.39.05.22.13.35.32.44.53.1.22.11.45.1.68.18-.04.34-.1.47-.15l.04-.02.25.59-.04.02c-.46.2-.67.24-1.17.29-.2.22-.46.41-.81.56l-.04.02c-.15.07-.29-.05-.35-.21s-.05-.33.1-.39l.04-.02h.01ZM162.68,28.84c.2.05.37.13.52.22-.03.15-.1.3-.19.44-.18-.07-.34-.13-.52-.2l.19-.45h0ZM163.3,31.19c.24-.2.35-.42.31-.52-.05-.14-.34-.36-.55-.26-.21.09-.33.36-.34.6.1.14.31.2.57.18"/>
        <path class="st11" d="M164.17,28.11c.09.2.31.38.68.65l-.2.32c.11.22.23.5.36.79.11.26.15.48.16.71,0,.13,0,.25-.02.38-.05.21-.19.39-.46.52l-.04.02c-.15.07-.29-.05-.35-.21s-.05-.33.1-.39l.04-.02c.21-.09.34-.19.39-.31.03-.08,0-.15-.07-.32-.31-.75-.7-1.36-.76-1.5-.04-.11-.07-.22-.03-.31.03-.1.08-.21.15-.33h.05-.02,0Z"/>
        <path class="st11" d="M166.26,30.84c-.05-.22-.14-.45-.26-.73-.27-.65-.57-1.27-.92-1.89.07-.2.13-.37.21-.54h.07c.34.61.6,1.22.84,1.8.2.46.3.79.27.92-.02.14-.05.3-.11.46l-.09-.02h-.01Z"/>
        <path class="st11" d="M144,31.33c-.34-.08-.62-.25-.55-.59.03-.15.12-.3.25-.45.26-.32.69-.49,1.17-.62l.03-.16c.13-.08.26-.15.39-.22l.05.03c-.05.32-.14.69-.25,1.17-.05.26-.11.46-.03.58.09.11.15.15.36.2h.04l-.14.64h-.04c-.41-.1-.57-.22-.66-.54-.22.02-.44.02-.64-.02M144.81,30.16c-.53.1-.88.25-.91.38-.02.11.13.19.31.23.15.03.31.04.46.03.05-.25.1-.47.13-.65M144.74,28.25c.12.16.22.33.3.48-.11.1-.25.19-.41.24-.1-.15-.2-.31-.31-.46l.42-.26h0ZM145.45,28.38c.12.16.22.33.3.48-.11.1-.25.19-.41.24-.1-.15-.2-.31-.31-.46l.42-.26h0Z"/>
        <path class="st11" d="M146.91,32.25h-.04c-.31-.08-.57-.21-.69-.53h0c-.23.18-.48.25-.78.18h-.04c-.16-.04-.2-.23-.16-.38.03-.15.14-.3.31-.26h.04c.22.07.35.04.48,0,.21-.07.27-.26.38-.39.09-.03.19-.07.31-.1l.02.02c-.07.12-.12.21-.13.27-.03.15-.02.25.09.36.09.08.2.14.34.18h.04l-.14.64h0l-.02.02ZM146.55,29.65c.15.15.29.31.39.48-.11.14-.24.24-.39.32-.11-.14-.25-.3-.41-.46l.41-.34h0Z"/>
        <path class="st11" d="M150.34,33.04h-.04c-.37-.1-.62-.24-.69-.47h0c-.23.15-.44.2-.64.15-.19-.04-.3-.15-.31-.35h0c-.22.12-.39.19-.61.14-.16-.04-.29-.13-.31-.32-.24.11-.49.14-.76.08h-.04c-.16-.04-.2-.23-.16-.38s.14-.3.31-.26h.04c.29.08.48.07.64,0,.12-.04.22-.15.36-.26.1-.02.21-.04.32-.05l.03.04c-.16.14-.27.26-.3.36-.02.12.03.18.14.2.15.03.25,0,.35-.05.15-.1.21-.22.34-.35.1-.03.2-.05.3-.07l.02.03c-.12.16-.23.31-.25.39-.03.13,0,.21.12.24.16.03.27,0,.37-.09.12-.09.2-.26.29-.41.1-.03.2-.07.31-.1l.02.03c-.1.15-.16.29-.19.38-.05.22.1.36.48.46h.04l-.14.64h-.04Z"/>
        <path class="st11" d="M151.93,30.02c-.04.21.02.49.18.92l-.35.14c-.04.24-.1.55-.18.86-.07.29-.16.48-.29.67-.07.11-.15.21-.24.3-.16.14-.37.21-.68.14h-.04c-.16-.04-.2-.23-.16-.38s.14-.3.31-.26h.04c.22.05.38.05.5,0,.07-.04.09-.13.13-.3.18-.78.23-1.5.26-1.67.02-.12.08-.21.15-.27.08-.05.18-.12.32-.18l.03.03h.01Z"/>
        <path class="st11" d="M152.03,33.46c.09-.22.15-.45.22-.75.15-.68.27-1.36.36-2.07.16-.12.33-.22.48-.31l.05.04c-.09.69-.22,1.33-.36,1.94-.11.49-.22.82-.32.91-.1.1-.22.21-.36.31l-.07-.07h-.01Z"/>
        <path class="st11" d="M153.9,33.64c-.52-.12-.71-.46-.62-.81.07-.26.2-.47.43-.64.22-.13.43-.21.62-.16.37.09.57.68.41,1.43-.1.46-.32.77-.6,1.01-.37.3-.66.35-.89.3-.32-.08-.62-.29-.92-.58l.11-.15c.11.08.23.13.37.16.27.07.58.02.9-.1.25-.1.45-.24.6-.39-.11,0-.25,0-.39-.04M154.04,32.52c-.23-.05-.41.03-.43.14-.03.14.19.35.55.44.11.02.2.04.29.04-.02-.31-.21-.57-.41-.62"/>
      </g>
    </g>
    <g>
      <path class="st16" d="M3.25,17.35c.96-.66,1.92-1.11,2.86-1.35.68-.19,1.35-.31,2.01-.34l.93-1.15v-.79h-.05c-.18,0-.32-.01-.41-.01-.59,0-1.26.05-2.03.16-.05,0-.12.01-.18.01-.44,0-.79-.13-1.03-.39-.25-.26-.37-.64-.37-1.1,0-.56.12-.96.35-1.2.23-.24.62-.36,1.16-.36.23,0,.56.04.99.12v-1.81c-.56-.12-1.02-.18-1.38-.18-.96,0-1.74.24-2.36.73-.72.58-1.07,1.43-1.07,2.54,0,.52.13,1.06.39,1.62.21.39.45.68.73.86-.54.24-1.1.54-1.67.89l1.13,1.77v-.03h-.01Z"/>
      <path class="st16" d="M39.35,18.61c.23-.23.34-.5.34-.82s-.11-.61-.34-.84c-.23-.23-.5-.34-.84-.34s-.59.11-.82.34-.34.52-.34.84.11.59.34.82.5.34.82.34.61-.11.84-.34Z"/>
      <path class="st16" d="M42.03,18.61c.23-.23.34-.5.34-.82s-.11-.61-.34-.84c-.23-.23-.5-.34-.84-.34s-.59.11-.82.34-.34.52-.34.84.11.59.34.82c.23.23.49.34.82.34s.61-.11.84-.34Z"/>
      <path class="st16" d="M51.8,14.06v-1.52c0-1.01-.38-1.86-1.14-2.57-.83-.75-1.84-1.13-3.05-1.13-.73,0-1.59.14-2.6.44v1.84c.81-.21,1.49-.32,2.04-.32.59,0,1.11.14,1.56.44.57.37.86.89.86,1.55v.99c0,.14-.07.21-.21.21h-6.86v-4.96h-2.31v4.66c0,.09-.02.16-.08.21-.05.05-.12.09-.23.09H12.92c-.09,0-.15-.03-.18-.11h-.01s-.01-.09-.01-.11V5.17h-2.31v8.88c0,.52.19.96.57,1.34.37.35.8.53,1.29.53h28.26c.6,0,1.09-.23,1.46-.69h.04l.66.69h7.24c.52,0,.96-.19,1.34-.56s.54-.8.54-1.3h-.01Z"/>
      <path class="st16" d="M56.18,19.91v-.45h-1.05c-.21,0-.36-.08-.46-.23-.07-.1-.11-.24-.11-.44,0-.43.19-.65.57-.65.12,0,.31.03.56.11v-.94c-.32-.09-.62-.13-.93-.13-.41,0-.75.14-1.01.42-.26.27-.39.64-.39,1.07,0,.22.07.48.2.78h-.54v.96h2.76s.41-.5.41-.5Z"/>
      <polygon class="st16" points="55.98 15.34 55.98 5.18 53.65 5.18 53.65 16.28 54.81 16.28 55.98 15.34"/>
      <path class="st16" d="M67.19,8.06c.33,0,.61-.11.84-.34s.34-.5.34-.82-.11-.59-.34-.82c-.23-.23-.5-.34-.84-.34s-.59.11-.82.34-.34.5-.34.83.11.59.34.82c.23.23.49.34.82.34h0Z"/>
      <path class="st16" d="M64.5,8.06c.33,0,.61-.11.84-.34s.34-.5.34-.82-.11-.59-.34-.82c-.23-.23-.5-.34-.84-.34s-.59.11-.82.34-.34.5-.34.83.11.59.34.82.5.34.82.34h0Z"/>
      <path class="st16" d="M81.67,18.61c.23-.23.34-.5.34-.82s-.11-.61-.34-.84c-.23-.23-.5-.34-.84-.34s-.59.11-.82.34-.34.52-.34.84.11.59.34.82.5.34.82.34.61-.11.84-.34Z"/>
      <path class="st16" d="M83.52,16.6c-.32,0-.59.11-.82.34s-.34.52-.34.84.11.59.34.82.49.34.82.34.61-.11.84-.34.34-.5.34-.82-.11-.61-.34-.84c-.23-.23-.5-.34-.84-.34Z"/>
      <path class="st16" d="M109.41,16.6c-.33,0-.6.11-.83.34s-.34.52-.34.84.11.59.34.82.5.34.83.34.59-.11.82-.34.34-.5.34-.82-.11-.61-.34-.84c-.23-.23-.5-.34-.82-.34Z"/>
      <path class="st16" d="M112.65,9.96c-.83-.75-1.84-1.13-3.05-1.13-.73,0-1.59.14-2.6.44v1.84c.81-.21,1.49-.32,2.04-.32.59,0,1.11.14,1.56.44.57.37.86.89.86,1.55v.99c0,.14-.07.21-.21.21h-6.37c-.07,0-.13-.02-.18-.05-.04-.04-.05-.09-.05-.15v-2.13c0-.84-.31-1.53-.93-2.07-.57-.48-1.36-.72-2.36-.72-.89,0-1.64.26-2.26.78-.76.65-1.14,1.56-1.14,2.72,0,.64.04,1.18.13,1.63h-4.36c.16-.27.44-.6.8-.96.38-.36.68-.6.91-.73l.18-.46c-.35-1.02-.92-1.79-1.72-2.29-.66-.44-1.4-.66-2.21-.66-.87,0-1.63.19-2.29.56-.93.5-1.58,1.3-1.95,2.4l.18.46c.23.12.54.37.93.77.36.34.62.65.78.93h-4.6s-.01-.1-.01-.13v-4.82h-2.31v4.66c0,.09-.02.16-.08.21-.05.05-.12.09-.23.09h-13.47c-.08,0-.14-.02-.18-.05-.04-.04-.05-.09-.05-.15v-5.15h-1.15l-.61.48c-.5-.21-1.01-.32-1.51-.32-.94,0-1.72.33-2.36.98-.7.72-1.05,1.63-1.05,2.73,0,.9.23,1.68.69,2.32.57.83,1.35,1.24,2.36,1.24h.04c.69,0,1.28-.24,1.77-.73.42.39.89.6,1.39.6h14.9c.6,0,1.09-.23,1.46-.69h.04l.66.69h5.76c.27,0,.52-.12.73-.36h.05c.22.24.45.36.69.36h6.25l.39-.49h.05c.58.62,1.27.94,2.08.94s1.48-.3,1.95-.9c.36.3.77.45,1.23.45h7.71c.52,0,.96-.19,1.34-.56.36-.36.54-.8.54-1.3v-1.52c0-1.01-.38-1.86-1.14-2.57h.01ZM66.05,14.11c-.23.05-.43.08-.6.08-.44,0-.8-.16-1.07-.48s-.42-.73-.42-1.23c0-.53.12-.94.37-1.25s.59-.45,1.03-.45c.21,0,.44.03.68.09v3.23h.01ZM92.45,12.48c-.45.48-.75.9-.89,1.24h-.09c-.12-.3-.39-.69-.81-1.17-.37-.43-.66-.7-.86-.82.12-.32.35-.56.7-.72.31-.14.66-.21,1.05-.21.3,0,.57.05.82.15.41.16.69.42.84.78-.19.12-.45.37-.78.75h0ZM102.33,13.98c-.33.3-.67.45-1.02.45-.72,0-1.07-.67-1.07-2,0-.52.11-.93.32-1.22.21-.3.5-.44.87-.44.29,0,.52.09.69.27.15.18.23.38.23.61v2.32h-.01Z"/>
      <path class="st16" d="M8.76,41.36c-.33,0-.6.11-.83.34-.23.23-.34.5-.34.84s.11.59.34.81.5.34.83.34.59-.11.82-.34c.23-.23.34-.49.34-.81s-.11-.61-.34-.84-.5-.34-.82-.34Z"/>
      <path class="st16" d="M6.07,41.36c-.33,0-.6.11-.83.34-.23.23-.34.5-.34.84s.11.59.34.81c.23.23.5.34.83.34s.59-.11.82-.34c.23-.23.34-.49.34-.81s-.11-.61-.34-.84-.5-.34-.82-.34Z"/>
      <path class="st16" d="M19.89,30.47c-.58-.42-1.29-.62-2.13-.62-.98,0-1.75.24-2.31.72-.61.53-.93,1.22-.93,2.07v2.13s-.02.1-.05.15c-.04.04-.1.05-.16.05h-5.77v.7l.99,1.23h.75c-.13.61-.41,1.04-.82,1.28-.42.24-1.06.36-1.95.36-1.04,0-1.78-.19-2.2-.56-.43-.37-.65-1.02-.65-1.94v-1.75h-1.14l-1.17.93v1.11c0,1.4.47,2.49,1.43,3.22.8.61,1.82.93,3.07.93h1.32c1.07,0,2.01-.24,2.77-.72,1-.64,1.57-1.59,1.69-2.86h2.34c.45,0,.86-.15,1.22-.45.47.6,1.11.9,1.92.9.94,0,1.7-.38,2.26-1.14.56-.77.84-1.73.84-2.88,0-1.28-.44-2.24-1.3-2.86,0,0,.02,0,.02,0ZM18.59,34.89c-.22.34-.52.5-.87.5s-.66-.14-.89-.44v-2.32c0-.23.07-.44.21-.61.16-.18.38-.27.62-.27.38,0,.68.14.9.42.23.31.34.77.34,1.36,0,.56-.11,1.01-.33,1.35v.02h.01Z"/>
      <path class="st16" d="M46.44,34.76c0,.14-.07.21-.21.21h-2.97v-4.1h-2.31v3.9c0,.14-.07.21-.21.21h-2.97v-3.23h-2.31v3.03c0,.14-.07.21-.21.21h-4.48c0-.19-.01-.33-.01-.42v-8.38h-2.31v8.6s-.01.09-.04.15c-.04.04-.1.05-.16.05h-.41l-2.37-6.96h-2.12l2.37,6.96h-3.3v.77l.94,1.17h5.56c.24,0,.48-.05.72-.16.29-.12.53-.3.7-.53h.04l.56.69h4.97c.6,0,1.09-.23,1.46-.7h.04l.62.7h3.38c.6,0,1.09-.23,1.46-.7h.04l.62.7h3.38c.5,0,.94-.19,1.32-.55.36-.36.55-.8.55-1.32v-5.03h-2.31v4.75-.02h-.02Z"/>
      <path class="st16" d="M55.55,40.23c-.08-.1-.12-.24-.12-.44,0-.43.19-.65.57-.65.13,0,.32.03.56.11v-.94c-.33-.09-.64-.13-.93-.13-.41,0-.75.14-1.01.42-.26.29-.39.64-.39,1.09,0,.23.07.49.2.78h-.54v.96h2.76l.41-.5v-.45h-1.05c-.21,0-.36-.08-.45-.23h0Z"/>
      <path class="st16" d="M56.35,34.76s0,.11-.04.13c-.05.05-.11.08-.16.08h-.41l-2.37-6.96h-2.12l2.37,6.96h-3.3v.77l.94,1.17h5.54c.54,0,.99-.2,1.35-.58.34-.36.52-.79.52-1.27v-8.88h-2.31v8.6h0Z"/>
      <polygon class="st16" points="60.73 37.28 61.87 37.28 63.04 36.34 63.04 26.16 60.73 26.16 60.73 37.28"/>
      <path class="st16" d="M74.08,29.95c-.23.23-.34.5-.34.82s.11.6.34.83c.23.23.5.34.83.34s.59-.11.82-.34c.23-.23.34-.5.34-.83s-.11-.59-.34-.82-.5-.34-.82-.34-.6.11-.83.34Z"/>
      <path class="st16" d="M76.41,30.77c0,.33.11.6.34.83.23.23.5.34.83.34s.59-.11.82-.34c.23-.23.34-.5.34-.83s-.11-.59-.34-.82-.5-.34-.82-.34-.6.11-.83.34-.34.5-.34.82Z"/>
      <path class="st16" d="M76.25,27.49c-.3,0-.55.11-.76.32s-.31.46-.31.75.11.54.32.75.46.31.75.31.54-.1.75-.31.31-.45.31-.75-.1-.54-.31-.75-.45-.32-.75-.32Z"/>
      <path class="st16" d="M80.41,34.76c0,.14-.08.21-.23.21h-7.21c-.21,0-.41-.08-.6-.24-.21-.19-.32-.44-.32-.73v-2.91h-1.14l-1.17.94v1.96c0,.91.34,1.66,1.02,2.24.53.45,1.14.68,1.84.68h8.24c.57,0,1.04-.22,1.41-.66.3-.34.45-.73.45-1.2v-5.03h-2.31v4.75h.02Z"/>
      <polygon class="st16" points="87.1 26.16 84.79 26.16 84.79 37.28 85.93 37.28 87.1 36.34 87.1 26.16"/>
      <path class="st16" d="M100.74,28.71c.23-.23.34-.5.34-.82s-.11-.59-.34-.82-.5-.34-.82-.34-.6.11-.83.34-.34.5-.34.83.11.59.34.82.5.34.83.34.59-.11.82-.34h0Z"/>
      <path class="st16" d="M103.43,28.71c.23-.23.34-.5.34-.82s-.11-.59-.34-.82-.5-.34-.82-.34-.6.11-.83.34-.34.5-.34.83.11.59.34.82.5.34.83.34.59-.11.82-.34h0Z"/>
      <path class="st16" d="M106.89,34.76c0,.07-.02.12-.08.16-.04.03-.09.04-.15.04h-3.1s-.01-.1-.01-.13v-4.82h-2.31v4.66c0,.09-.03.16-.09.21-.05.05-.12.09-.21.09h-8.38v-4.97h-2.32v6.05c0,.84-.21,1.47-.61,1.87-.39.41-1.02.61-1.84.62-.2,0-.43-.02-.69-.08-.08,0-.13-.02-.16-.03v.79l.94,1.18h.53c1.01,0,1.89-.27,2.64-.82.89-.67,1.39-1.58,1.5-2.73h9.14c.6,0,1.09-.23,1.47-.69h.03l.66.69h3.5c.59,0,1.07-.23,1.46-.68.27-.35.42-.75.42-1.18v-8.88h-2.31v8.63h-.01Z"/>
      <polygon class="st16" points="111.26 37.28 112.4 37.28 113.58 36.34 113.58 26.16 111.26 26.16 111.26 37.28"/>
    </g>
  </g>
  <g>
    <path class="st2" d="M8.29,49.08h1.15c.09,0,.14.07.14.14v1.18c0,.09-.05.14-.14.14h-1.15c-.09,0-.14-.07-.14-.14v-1.18c0-.09.07-.14.14-.14Z"/>
    <path class="st2" d="M10.08,49.08h1.15c.09,0,.14.07.14.14v1.18c0,.09-.07.14-.14.14h-1.15c-.09,0-.14-.07-.14-.14v-1.18c0-.09.05-.14.14-.14Z"/>
    <rect class="st2" x="16.32" y="59.38" width="1.43" height="1.46" rx=".1" ry=".1"/>
    <rect class="st2" x="14.51" y="59.38" width="1.43" height="1.46" rx=".1" ry=".1"/>
    <path class="st2" d="M19.92,52.48c-.1,0-.14.04-.14.14v3.49c0,.27-.05.47-.16.58s-.27.16-.5.16h-.98c-.34,0-.64-.07-.83-.22s-.32-.36-.32-.64v-3.37c0-.1-.04-.14-.14-.14h-1.18s-.11,0-.16.03-.09.05-.09.11v3.5c0,.16-.03.31-.09.42-.04.11-.11.18-.2.23s-.22.07-.38.07h-.89s-.09,0-.12.01c-.04,0-.07-.01-.11-.01h-.53c-.23,0-.39-.05-.5-.16-.11-.11-.16-.29-.16-.58v-4.46c0-.1-.04-.14-.14-.14h-1.26c-.1,0-.14.04-.14.14v.59h-1.37c-.34,0-.69.04-1,.14-.32.1-.6.25-.87.47-.25.22-.45.5-.6.87s-.23.8-.23,1.33c0,.45.07.86.21,1.18s.33.59.56.81c.23.21.5.37.82.47s.66.15,1.02.15c.29,0,.58-.04.83-.12s.49-.21.69-.37c.09.39.25.67.5.82.25.15.6.23,1.05.23h1.11s.11,0,.16-.03c.03,0,.04.03.07.03h1.27c.44,0,.8-.05,1.05-.15s.45-.29.59-.55c.15.29.37.48.64.58.26.09.58.14.93.14h1.35c.58,0,.99-.14,1.24-.43s.37-.71.37-1.32v-3.85c0-.1-.04-.14-.14-.14h-1.27.03l.02-.02ZM10.92,54.78c0,.48-.11.86-.32,1.11s-.54.38-.98.38c-.38,0-.69-.1-.91-.31s-.33-.5-.33-.93c0-.54.12-.92.36-1.11.23-.21.55-.31.94-.31h1.22v1.16h.01Z"/>
    <rect class="st2" x="19.76" y="49.65" width="1.59" height="1.46" rx=".1" ry=".1"/>
    <path class="st2" d="M23.06,48.82h1.27c.09,0,.14.07.14.14v9.09c0,.09-.07.14-.14.14h-1.27c-.09,0-.14-.07-.14-.14v-9.09c0-.09.05-.14.14-.14Z"/>
    <path class="st2" d="M30.91,52.91c-.25-.23-.55-.42-.89-.53s-.72-.16-1.14-.16c-.37,0-.72.05-1.07.16s-.65.31-.91.55-.47.58-.61.98-.23.88-.23,1.45c0,.53.05.96.2,1.32s.31.65.54.88c.23.22.5.38.86.48s.71.15,1.15.15h1.39c0,.31-.03.55-.09.72s-.15.33-.26.43-.25.16-.39.2-.33.05-.5.05h-1.61c-.1,0-.14.04-.14.14v1.1c0,.1.04.14.14.14h1.85c.82,0,1.46-.2,1.89-.59s.65-1.03.65-1.89v-3.22c0-.56-.07-1.03-.21-1.41s-.33-.7-.58-.93h-.01ZM30.16,56.83h-1.22c-.44,0-.78-.11-1.02-.32-.23-.21-.36-.6-.36-1.18,0-.53.11-.94.34-1.25.23-.32.55-.47.98-.47s.76.14.96.43.31.69.31,1.24v1.57h.01Z"/>
    <path class="st2" d="M42.27,49.65h1.32c.09,0,.14.07.14.14v1.18c0,.09-.05.14-.14.14h-1.32c-.09,0-.14-.07-.14-.14v-1.18c0-.09.05-.14.14-.14Z"/>
    <path class="st2" d="M48.1,48.82c-.1,0-.14.04-.14.14v7.13c0,.27-.05.47-.16.58s-.27.16-.5.16h-2.63c.34-.23.64-.55.83-.92.21-.37.32-.78.32-1.24,0-.75-.25-1.33-.75-1.79-.49-.44-1.21-.67-2.14-.67s-1.64.22-2.14.67c-.49.44-.75,1.04-.75,1.79,0,.45.11.87.32,1.24s.48.67.82.92h-3.61c-.34,0-.64-.07-.83-.22-.21-.15-.32-.36-.32-.64v-3.37c0-.1-.04-.14-.14-.14h-1.27c-.1,0-.14.04-.14.14v4.91c0,.33,0,.61-.03.88,0,.25-.05.47-.12.65s-.18.32-.33.42-.36.14-.61.14h-.31c-.1,0-.14.04-.14.14v1.1c0,.1.04.14.14.14h.5c.45,0,.83-.05,1.15-.18s.56-.32.76-.56.33-.56.42-.93.12-.81.12-1.3v-.26c.15.2.34.32.58.37.22.05.49.09.81.09h3.27c.26,0,.58,0,.92-.04.34-.03.67-.12.98-.29.26.16.55.26.83.29s.6.04.93.04h3.2c.58,0,.99-.14,1.24-.43.25-.27.37-.71.37-1.32v-7.5c0-.1-.04-.14-.14-.14h-1.3,0ZM43.85,55.92c-.26.29-.56.5-.92.67-.37-.15-.69-.38-.93-.67-.26-.29-.38-.67-.38-1.14,0-.44.14-.77.39-1,.26-.22.58-.34.93-.34s.66.11.92.34c.26.22.38.56.38,1,0,.47-.12.86-.38,1.14h-.01Z"/>
    <path class="st2" d="M51.44,48.82h1.27c.09,0,.14.07.14.14v9.09c0,.09-.07.14-.14.14h-1.27c-.09,0-.14-.07-.14-.14v-9.09c0-.09.05-.14.14-.14Z"/>
    <path class="st2" d="M58.72,49.08h1.15c.09,0,.14.07.14.14v1.18c0,.09-.05.14-.14.14h-1.15c-.09,0-.14-.07-.14-.14v-1.18c0-.09.07-.14.14-.14Z"/>
    <path class="st2" d="M60.5,49.08h1.15c.09,0,.14.07.14.14v1.18c0,.09-.07.14-.14.14h-1.15c-.09,0-.14-.07-.14-.14v-1.18c0-.09.05-.14.14-.14Z"/>
    <path class="st2" d="M78.36,49.65h1.32c.09,0,.14.07.14.14v1.18c0,.09-.05.14-.14.14h-1.32c-.09,0-.14-.07-.14-.14v-1.18c0-.09.05-.14.14-.14Z"/>
    <path class="st2" d="M86.88,49.65h1.32c.09,0,.14.07.14.14v1.18c0,.09-.05.14-.14.14h-1.32c-.09,0-.14-.07-.14-.14v-1.18c0-.09.05-.14.14-.14Z"/>
    <path class="st2" d="M89.58,52.91c-.25-.23-.55-.42-.91-.53s-.72-.16-1.13-.16c-.37,0-.75.05-1.09.16s-.65.29-.91.53c-.26.23-.47.55-.61.94-.15.39-.23.87-.23,1.43,0,.61.11,1.14.32,1.52h-1.53c-.34,0-.61-.07-.82-.22s-.31-.36-.32-.64v-.47c0-.49-.07-.94-.2-1.36-.12-.42-.32-.76-.59-1.04s-.61-.5-1.04-.66-.93-.23-1.53-.23c-.56,0-1.1.07-1.62.23-.53.15-1,.33-1.45.55v-4.03c0-.1-.04-.14-.14-.14h-1.27c-.1,0-.14.04-.14.14v6.19c0,.33,0,.6-.03.82-.01.22-.04.38-.1.5-.04.12-.11.21-.22.26s-.23.07-.39.07h-10.29s-.05,0-.09.01c-.03,0-.04-.01-.09-.01h-.53c-.23,0-.39-.05-.5-.16s-.16-.29-.16-.58v-4.46c0-.1-.04-.14-.14-.14h-1.26c-.1,0-.14.04-.14.14v.59h-1.37c-.34,0-.69.04-1,.14s-.6.25-.87.47c-.25.22-.45.5-.6.87s-.23.8-.23,1.33c0,.45.07.86.21,1.18.14.33.33.59.56.81.23.21.5.37.82.47s.66.15,1.02.15c.29,0,.58-.04.83-.12.26-.09.49-.21.69-.37.09.39.25.67.5.82s.6.23,1.05.23h11.96c.26,0,.5,0,.71-.04.21-.03.39-.09.55-.21.12.15.33.23.61.23h3.68c.32,0,.59,0,.86-.03.26-.01.48-.05.69-.11.2-.05.37-.15.5-.26.14-.11.26-.27.37-.47.14.34.36.58.66.7.31.11.65.16,1.04.16h3.83c.43,0,.81-.05,1.15-.15s.65-.26.89-.49c.25-.23.44-.53.58-.89s.21-.82.21-1.36-.07-1.04-.22-1.43c-.14-.39-.34-.71-.59-.94l.04.04h.03ZM60.47,54.78c0,.48-.11.86-.32,1.11s-.54.38-.98.38c-.38,0-.69-.1-.91-.31s-.33-.5-.33-.93c0-.54.12-.92.36-1.11.23-.21.55-.31.94-.31h1.22v1.16h.01ZM80.65,56.24c-.04.2-.14.33-.27.42-.14.09-.32.14-.56.15s-.56.01-.94.01h-3c.01-.1.03-.2.04-.29v-2.18c.38-.18.82-.36,1.32-.5s1-.23,1.51-.23c.38,0,.7.04.94.12s.45.21.6.36.26.34.32.58.09.49.09.78c0,.34-.03.6-.07.8h.04l-.02-.02ZM88.54,56.49c-.21.23-.54.36-.99.36s-.77-.12-.98-.37-.32-.67-.32-1.27c0-.5.11-.89.33-1.18.22-.27.54-.43.96-.43.88,0,1.3.56,1.3,1.67,0,.58-.11.99-.32,1.22h0Z"/>
    <path class="st2" d="M108.72,52.91c-.25-.23-.55-.42-.91-.53-.34-.11-.72-.16-1.13-.16s-.78.05-1.11.16c-.34.11-.64.27-.89.5-.25.23-.45.54-.59.91s-.22.82-.23,1.36v.21s0,.14.01.21c0,.23-.03.44-.09.6s-.12.29-.21.38-.18.16-.27.21c-.1.04-.21.05-.31.05h-.77c-.34,0-.6-.07-.81-.21-.2-.14-.32-.33-.34-.58v-.34c0-.47-.05-.91-.16-1.33-.11-.42-.29-.78-.54-1.1s-.58-.58-.99-.76-.93-.29-1.53-.29c-.56,0-1.05.11-1.45.32-.39.21-.72.48-1.02.8-.05.05-.04.12.03.2l.71.75s.12.05.2-.01c.2-.21.42-.36.66-.48s.53-.18.82-.18.58.05.78.16c.21.11.37.25.5.44s.22.39.27.65.09.53.09.81c0,.22,0,.39-.04.56-.03.15-.09.27-.16.37-.09.1-.2.15-.34.2s-.34.05-.58.05h-4.14c-.23,0-.39-.05-.5-.16-.11-.11-.16-.29-.16-.58v-7.13c0-.1-.04-.14-.14-.14h-1.27c-.1,0-.14.04-.14.14v7.5c0,.59.12,1.03.37,1.32.25.27.66.43,1.24.43h5.34c.44,0,.81-.05,1.13-.16.31-.11.55-.33.72-.65.15.34.38.56.67.66s.61.15,1,.15h.48c.12,0,.26,0,.42-.03.15-.01.29-.05.43-.11s.27-.12.39-.22.23-.21.33-.36c.25.29.55.49.92.61s.78.2,1.24.2c.43,0,.81-.05,1.15-.16.34-.11.65-.29.89-.53.25-.23.44-.55.58-.92s.21-.83.21-1.37-.07-1.04-.22-1.43c-.14-.39-.34-.71-.59-.94l.05-.04v-.02ZM107.7,56.54c-.21.26-.54.39-.99.39s-.77-.12-.98-.38-.32-.69-.32-1.26c0-.54.11-.96.32-1.24s.54-.43.98-.43c.87,0,1.3.56,1.3,1.67,0,.58-.11,1-.32,1.26h0Z"/>
  </g>
</svg>