<?xml version="1.0" encoding="UTF-8"?>
<svg id="Layer_1" xmlns="http://www.w3.org/2000/svg" version="1.1" viewBox="0 0 500 500">
  <!-- Generator: Adobe Illustrator 30.2.1, SVG Export Plug-In . SVG Version: 2.1.1 Build 1)  -->
  <defs>
    <style>
      .st0 {
        fill: #fff;
      }
    </style>
  </defs>
  <path class="st0" d="M193.94,154.68l-2.11-.65c8.2-26.33,32.22-44,59.79-44s51.35,17.51,59.91,43.57l-2.09.69c-8.27-25.15-31.5-42.06-57.82-42.06s-49.77,17.06-57.68,42.45"/>
  <polygon class="st0" points="250.3 111.14 250.3 44.13 247.87 44.13 247.87 111.36 250.3 111.14"/>
  <polygon class="st0" points="282.92 72.34 280.05 78.73 265.06 112.68 262.64 112.24 278.29 76.97 280.94 70.36 282.92 72.34"/>
  <polygon class="st0" points="301.43 90.86 297.25 95.93 278.51 117.31 280.49 118.41 298.79 97.47 303.2 92.62 301.43 90.86"/>
  <polygon class="st0" points="296.14 129.87 339.13 105.62 338.02 103.42 294.38 128.11 296.14 129.87"/>
  <polygon class="st0" points="236.41 113.12 233.99 113.78 217.89 76.97 215.03 70.58 216.79 68.81 219.66 75.21 236.41 113.12"/>
  <polygon class="st0" points="194.31 91.3 198.72 96.15 219.66 120.17 221.64 118.85 200.26 94.6 196.07 89.53 194.31 91.3"/>
  <polygon class="st0" points="205.77 131.63 159.48 105.62 160.58 103.42 207.31 129.87 205.77 131.63"/>
  <polygon class="st0" points="307.16 145.74 397.76 133.84 397.32 131.63 306.06 143.76 307.16 145.74"/>
  <polygon class="st0" points="196.73 145.08 103.05 131.63 102.83 133.84 195.63 147.28 196.73 145.08"/>
  <polyline class="st0" points="353.66 174.21 359.61 175.54 394 183.69 400.61 185.46 400.61 187.22 399.95 190.08 394 188.76 362.7 181.27 356.74 179.94"/>
  <polygon class="st0" points="148.46 172.63 144.93 178.36 101.73 190.04 100.41 185.42 148.46 172.63"/>
  <path class="st0" d="M100.39,249.16l-5.07,8.38c-2.64,1.32-5.29,2.87-8.16,4.41-7.05,3.97-14.33,7.94-19.4,10.58-2.87,1.54-4.85,2.65-6.17,3.31-.66.22-.88.44-1.1.44l-.88-1.98-.22-.66-.66-1.55c.44-.22,2.42-1.32,5.51-3.08,6.39-3.31,17.41-9.26,28.21-15.43,2.65-1.54,5.51-2.87,7.94-4.41"/>
  <polygon class="st0" points="140.53 288.57 102.17 344.63 102.17 336.19 135.9 287.03 140.53 288.57"/>
  <polygon class="st0" points="171.39 389.75 176.46 389.75 174.91 394.38 173.63 398.6 168.08 400.11 169.84 394.38 171.39 389.75"/>
  <polygon class="st0" points="185.49 359.55 185.27 360.21 185.05 360.87 184.83 361.75 179.98 361.75 180.2 360.65 180.42 359.99 180.64 359.55 185.49 359.55"/>
  <path class="st0" d="M201.14,308.63l-4.19,13.89-.22.44-.22.66c-1.54,0-3.09-.22-4.85,0l.22-.88.22-.22,4.63-15.21,4.41,1.32Z"/>
  <path class="st0" d="M251.62,344.56v4.63c-.44.66-.88,1.54-1.32,2.21,0,.22-.22.44-.22.66q-.22.22-.22.44c-.22.22-.22.44-.22.66v.22c-.44.88-.66,1.76-.66,2.65v.66l-.22.44v.22l-.22,1.54.22,2.2h2.87v.66h-4.63v-12.34l-.22-31.13c1.32.22,2.87.44,4.19.44h.44l.22,25.84Z"/>
  <polygon class="st0" points="252.28 459.55 247.43 459.55 247.21 394.38 246.99 389.75 251.84 389.75 251.84 394.38 252.28 459.55"/>
  <path class="st0" d="M306.06,323.4c-1.54,0-3.08,0-4.63.22l-.22-.66-.22-.44-3.97-12.78c1.32-.44,2.65-.88,4.19-1.54l4.41,14.11.22.44.22.66Z"/>
  <polygon class="st0" points="318.19 361.75 313.34 361.75 312.9 360.65 312.68 359.99 312.68 359.55 317.31 359.33 317.52 359.99 317.75 360.65 318.19 361.75"/>
  <polygon class="st0" points="330.53 400.99 325.68 400.99 323.48 394.38 322.15 389.75 327 389.75 328.33 394.38 330.53 400.99"/>
  <path class="st0" d="M399.74,339.93l-3.75,2.65-35.71-54.44c1.54-.66,3.08-1.1,4.41-1.54l35.05,53.34Z"/>
  <polygon class="st0" points="397.08 252.24 397.08 252.46 404.36 256.65 431.91 272.96 437.86 276.49 441.17 273.18 435.22 269.65 399.95 248.71 392.67 244.53 392.67 244.3 397.08 252.24"/>
  <path class="st0" d="M258.44,29.17l58.19,58.19h97.21v97.2l59.95,59.95V29.17h-215.35ZM467.84,230.42l-48.27-48.27v-100.51h-100.51l-46.51-46.51h195.29v195.3Z"/>
  <path class="st0" d="M26.99,29.17v210.72l57.31-57.31v-95.22h95.22l58.19-58.19H26.99ZM177.1,81.63h-98.53v98.53l-45.85,45.63V35.12h190.89l-46.51,46.51Z"/>
  <path class="st0" d="M181.51,414.03h-97.21v-96.99l-57.31-57.31v212.05h212.05l-57.53-57.75ZM32.72,273.62l45.85,45.85v100.51h100.51l46.07,46.07H32.72v-192.43Z"/>
  <path class="st0" d="M413.83,319.03v95h-95.22l-57.53,57.75h212.71v-212.71l-59.95,59.95ZM467.84,466.05h-192.87l46.07-46.07h98.53v-98.53l48.27-48.27v192.87Z"/>
  <path class="st0" d="M400.61,190.08v-89.49h-89.27l-8.16-7.94-55.11-55.11-31.3,31.3-1.76,1.76-18.96,18.96-1.76,1.76-9.48,9.26h-87.29v87.51l-61.72,61.72,23.59,23.8,2.2,2.21,35.93,35.71v89.49h89.27l60.62,60.62,2.64,2.42,1.98-1.98.22-.22,61.05-60.84h87.29v-87.51l37.25-37.03,3.3-3.31,21.16-21.38-61.72-61.72ZM394,310.87v83.54h-83.54l-60.4,60.4-60.4-60.4h-85.52v-85.52l-59.07-59.07,59.07-59.08v-83.54h83.54l31.96-31.96,28.22-28.21.22-.22,30.2,30.2,1.76,1.76,17.19,17.19,11.24,11.24h85.52v85.52l59.07,59.07-59.07,59.07Z"/>
  <path class="st0" d="M284.45,237.47c-1.54-3.53-3.75-6.39-6.83-9.04h-.22c-.44,1.77-.88,3.53-.88,5.07,3.31,2.65,5.29,4.85,5.95,6.39.22.44.22.88,0,1.32-.88,1.98-3.31,4.41-5.73,5.51-1.54.66-5.95,1.76-8.16-3.09-.22-.88-.44-2.65-.44-4.41l-1.54-.22c-.44,3.31,0,5.95.88,8.38,1.98,4.41,6.17,6.39,11.02,4.41,3.09-1.32,6.17-4.63,6.83-7.94.22-2.42,0-4.63-.88-6.39M267.25,224.25l-1.1,4.41c1.76.22,3.53.66,5.29,1.1.44-1.32.88-2.87,1.1-4.19-1.76-.66-3.31-1.1-5.29-1.32"/>
  <path class="st0" d="M290.18,228.88c-1.98-4.41-3.97-9.04-6.61-13.66l-.44-.22c-.44,1.32-1.1,2.65-1.54,4.19,2.64,4.85,5.07,9.7,7.05,14.55,1.1,2.2,1.54,3.97,1.98,5.73l.88.22c.44-1.32.66-2.42.88-3.52.22-1.1-.66-3.53-2.2-7.28M285.77,207.94h-.44c-.44,1.1-1.32,1.98-2.65,2.43-2.2,1.1-4.41,1.1-5.73,1.76-1.32.44-1.77,1.76-1.32,3.53l2.2,1.32h.22l.44-2.2.22-.22c.88-.44,2.65-.66,4.63-1.32,1.1-.66,1.99-1.32,2.65-2.42l-.22-2.87Z"/>
  <path class="st0" d="M307.37,226.67l-.44.22c-2.65,1.1-4.63-.22-7.05-2.43l-.44.22c-.22,1.32-.22,2.65-.22,4.19,1.54,1.32,3.08,2.43,4.41,3.09.22,1.54,0,3.53-.88,5.51-1.1,1.98-2.42,3.53-4.63,4.41-.44.22-1.32.44-2.2.66l-.22,1.32c3.31.44,5.73.22,7.5-.44,1.98-.88,3.08-2.87,3.52-5.51.44-1.55.44-3.53-.44-5.73.66-.22,1.32-.22,2.43-.66h.22l.44-.22-1.98-4.63Z"/>
  <path class="st0" d="M310.24,203.97l-1.54,3.53c1.54.44,2.86.88,4.19,1.54.66-1.1,1.1-2.2,1.32-3.3-1.1-.66-2.43-1.32-3.97-1.77M323.46,219.84l-.44.22c-1.1.44-2.2.88-3.75,1.1.22-1.76,0-3.52-.66-5.29-.66-1.54-1.76-2.87-3.31-3.97-1.1-.66-2.2-.88-3.09-.44-1.32.44-2.2,1.77-2.87,3.31-1.1,2.42-1.32,4.85-.22,7.27.44,1.1.88,1.98,1.54,2.86-.88.66-1.77,1.1-2.87,1.55l-.44.22c-1.1.44-1.1,1.99-.66,3.09.44.88,1.1,1.76,1.99,1.76h.22l.44-.22.22-.22c2.87-1.1,4.85-2.65,6.39-4.19,3.75-.44,5.51-.66,9.04-2.2l.22-.22-1.76-4.63ZM314.86,222.27c-1.98.22-3.52-.22-4.41-1.32,0-1.99,1.1-3.97,2.65-4.63,1.54-.88,3.75.88,4.19,1.98.44.66-.44,2.43-2.42,3.97M305.17,206.39l-1.54,3.53c1.54.44,2.87.88,4.19,1.54.66-1.1,1.1-2.2,1.32-3.53-1.1-.44-2.43-1.1-3.97-1.54"/>
  <path class="st0" d="M328.31,211.9c-1.1-2.2-1.98-4.41-2.87-5.95l1.54-2.64c-2.86-1.99-4.63-3.31-5.29-4.85l-.44-.22c-.44,1.1-.88,1.98-1.1,2.64-.22.66-.22,1.54.22,2.43.44,1.1,3.53,5.95,5.95,11.68.44,1.1.66,1.77.44,2.42-.44.88-1.54,1.77-3.09,2.43h-.22c-1.32.66-1.32,1.98-.88,3.08.44,1.1,1.32,1.98,2.43,1.77l.22-.22h.44c2.2-1.1,3.08-2.42,3.52-3.97.22-1.1.22-1.98.22-3.09,0-1.76-.22-3.3-1.1-5.51"/>
  <path class="st0" d="M337.35,209.04c-1.98-4.41-3.97-9.04-6.61-13.89h-.44c-.66,1.32-1.1,2.65-1.54,4.19,2.65,4.85,4.85,9.48,7.05,14.55.88,2.2,1.54,3.97,1.98,5.73h.66c.44-1.1.88-2.43.88-3.53.22-.88-.44-3.52-1.98-7.05"/>
  <path class="st0" d="M412.95,271.86l-46.95,16.75-4.41,1.54-59.51,21.16-4.19,1.55-23.14,8.16c-1.32,1.1-5.73,4.85-11.46,4.85h-1.32c-3.97-.44-7.49-2.65-10.58-6.39-1.1,1.1-2.87,2.42-4.63,3.31-4.19,1.98-9.7,2.86-17.2-1.1l-29.54-9.48-4.41-1.32-57.75-18.51-4.63-1.32-53.56-17.19,7.49-11.9,5.29-8.38,46.29-73.62,3.75-5.73,11.68-18.51,17.63-7.94.88-.44,1.76,3.97-6.39,2.87-10.8,4.85-12.34,19.39-44.53,70.76-5.07,8.38-8.82,13.89,49.37,15.65,4.63,1.54,90.82,29.1c10.36,5.51,16.09-.22,17.85-2.42.22-.44.44-.66.44-.66l1.54-2.2.22-.44.22.22,1.77,2.42s0,.22.22.22c2.65,3.97,5.51,6.17,8.82,6.61,5.29.44,9.48-3.97,9.7-3.97l.66-.66,133.8-47.39c-3.31-5.95-6.61-11.68-9.48-17.19-1.76-2.65-3.09-5.29-4.41-7.94-17.64-31.52-28.88-51.58-35.93-64.37-1.1-2.2-2.2-3.97-3.08-5.73-5.73-10.58-7.94-14.77-8.6-16.31-1.32-.88-7.27-2.87-13.44-4.85-1.99-.44-3.75-1.1-5.51-1.55l1.32-4.41c.22,0,.44.22.66.22,18.96,5.73,20.72,7.28,20.94,8.82.88,1.54,4.63,8.81,10.58,19.4.88,1.76,1.76,3.52,3.08,5.73,9.92,18.3,24.25,43.87,37.25,67.45,1.54,2.65,3.09,5.29,4.41,7.94,2.64,4.41,5.07,8.82,7.27,13l1.32,2.21Z"/>
  <path class="st0" d="M253.15,168.48c0-.22-.88-1.32-2.42-2.87-5.51-5.51-20.72-17.2-47.17-13-3.31.44-6.39.44-9.04.44-.88,0-1.54,0-2.2-.22-12.34-.44-16.97-5.07-16.97-5.07l-2.2-2.2-1.32,2.2-3.75,6.39-63.48,107.57-.66,1.1.66,1.1c.22.66,11.02,20.28,58.63,16.09,46.73-4.41,77.37,5.29,85.96,27.11,0,.22.22.22.22.44l1.76,4.85v.22l2.43,6.39v-150.11l-.44-.44ZM249.18,297.87c-10.58-15.21-33.28-23.37-65.69-23.37-6.39,0-13.45.44-20.72,1.1-38.13,3.31-50.92-9.26-53.78-12.78l65.25-110.21c3.97,2.42,13,6.39,29.98,4.41,28.21-4.41,42.32,10.36,44.97,13.44v127.41Z"/>
  <path class="st0" d="M331.62,153.05l-2.87-4.85-.66-.88-.88-1.54-1.99,1.98c-.44.22-4.85,4.19-13.67,5.73v.22c-.66,0-1.54,0-2.42.22-3.75.22-8.6.22-13.89-.88-14.33-2.86-29.54-.66-38.57,5.73-2.87,1.98-4.85,4.19-5.95,6.84-.88,1.32-1.32,2.64-1.54,4.19v147.68l1.98-4.85.44-.44,1.77-4.41s0-.22.22-.44c1.54-3.09,13.89-25.79,45.85-25.79,7.05,0,13.89.22,20.72.66,29.32.88,57.09,1.76,74.5-15.65l1.1-1.32-64.14-112.19ZM320.38,277.81c-6.83-.44-13.89-.66-20.94-.66-25.35,0-39.45,13.45-45.85,22.04v-129.17c.66-3.53,3.31-6.17,5.51-7.72,5.73-3.97,14.33-6.17,23.59-6.17,3.97,0,7.94.44,11.68,1.32,16.53,3.31,27.33-1.98,31.74-4.85l64.14,111.97c-16.09,14.99-42.32,14.11-69.87,13.23"/>
  <path class="st0" d="M308.25,292.58c-.22,0-29.76-7.06-38.57,15.43l-1.98,5.51,5.07-2.65c.44-.22,24.91-13.44,35.04-13.88l15.21-.66-14.77-3.75ZM275.4,306.04c2.77-9.11,17.94-12.49,19.96-9.37-6.17,2.2-15.33,7.16-19.96,9.37"/>
  <path class="st0" d="M233.31,308.01c-8.82-22.49-38.35-15.43-38.57-15.43l-14.77,3.75,15.21.66c10.14.44,34.61,13.66,34.83,13.88l5.29,2.65-1.98-5.51ZM206.21,296.49c7.04-1.34,17.39.24,19.16,9-4.63-2.21-13.21-6.8-19.16-9"/>
  <path class="st0" d="M258.44,29.17l58.19,58.19h97.21v97.2l59.95,59.95V29.17h-215.35ZM467.84,230.42l-48.27-48.27v-100.51h-100.51l-46.51-46.51h195.29v195.3Z"/>
  <path class="st0" d="M26.99,29.17v210.72l57.31-57.31v-95.22h95.22l58.19-58.19H26.99ZM177.1,81.63h-98.53v98.53l-45.85,45.63V35.12h190.89l-46.51,46.51Z"/>
  <path class="st0" d="M181.51,414.03h-97.21v-96.99l-57.31-57.31v212.05h212.05l-57.53-57.75ZM32.72,273.62l45.85,45.85v100.51h100.51l46.07,46.07H32.72v-192.43Z"/>
  <path class="st0" d="M413.83,319.03v95h-95.22l-57.53,57.75h212.71v-212.71l-59.95,59.95ZM467.84,466.05h-192.87l46.07-46.07h98.53v-98.53l48.27-48.27v192.87Z"/>
  <path class="st0" d="M173.72,205.29c-.55-1.17-1.29-2.42-2.26-3.69l-3.21,2c.82,1.19,1.61,2.37,2.37,3.59,1.17-.5,2.22-1.13,3.1-1.9"/>
  <path class="st0" d="M168.21,204.25c-.55-1.17-1.3-2.42-2.26-3.69l-3.21,2c.81,1.19,1.61,2.37,2.36,3.59,1.18-.5,2.22-1.12,3.11-1.9"/>
  <path class="st0" d="M182.9,215.15c-.88-1.28-1.88-2.5-3.05-3.69l-3.1,2.59c1.18,1.25,2.27,2.44,3.13,3.56,1.17-.58,2.17-1.4,3.01-2.46"/>
  <path class="st0" d="M221.63,214.33l-.44-.22c-.88.44-1.76.88-2.42,1.32-.44.44-.88,1.1-1.1,2.2-.22,1.1-.66,6.61-1.98,12.78-.44,1.32-.66,1.98-1.1,2.2-.88.66-2.2.66-3.97.22h-.22l-.44-.22c-2.87-.66-4.19-1.76-3.75-3.53.22-.66.66-1.76,1.54-2.86l-.22-.22c-.88.22-1.54.44-2.42.66-.66,1.1-1.32,2.42-2.2,3.09-.66.66-1.54.88-2.87.66-.88-.22-1.1-.88-.88-1.76.22-.66.88-1.76,1.98-3.09l-.22-.22c-.88,0-1.55.22-2.21.44-1.1.88-1.54,1.99-2.65,2.65-.66.44-1.54.66-2.64.44-.88-.22-1.32-.66-1.1-1.54.22-.66,1.1-1.77,2.2-2.87l-.22-.22c-.88,0-1.77.22-2.43.44-1.1.88-1.98,1.76-2.87,1.98-1.1.66-2.64.66-4.85,0h-.66c-1.1-.22-1.98-.88-2.64-1.32-.88-.88-.88-1.76-.66-2.87.22-.44.44-1.1,1.1-2.2h-.22c-.88.22-1.76.44-2.42.66-.66,1.1-1.32,2.65-2.87,3.09-.88.22-1.98.44-3.75,0l-.22-.22s0,.22-.22.22v-.22h-.22c-1.54-.22-2.2-.66-2.87-1.54-.44-.88-.22-2.43.22-4.41.88-3.74,1.54-6.61,1.98-9.04l-.44-.22c-.88.44-1.98,1.1-3.09,1.54l-.22,1.32c-3.75,1.1-7.05,2.43-9.04,4.85-1.1,1.32-1.54,2.42-1.98,3.52-.44,2.64,1.76,3.97,4.19,4.63,1.76.44,3.31.44,5.07.22.66,2.42,1.76,3.3,5.07,3.97l.22.22h.44c2.2.44,4.19,0,5.95-1.32h.22c.88,2.42,2.87,3.31,5.29,3.97h.22l.44.22c1.98.44,3.97.22,5.73-.66.22,1.32,1.1,2.21,2.42,2.42,1.76.44,3.09,0,4.85-1.1.22,1.54,1.1,2.42,2.43,2.87,1.54.22,3.08-.22,4.85-1.32h.22c.44,1.76,2.42,2.87,5.29,3.53l.44.22h.22c2.43.66,3.97,0,5.29-1.1.66-.66,1.32-1.32,1.98-2.2.88-1.54,1.54-3.09,1.98-5.29.66-2.2,1.1-4.63,1.54-6.39l2.65-1.32c-1.32-3.31-1.77-5.51-1.32-7.05M165.42,220.5c-1.1,0-2.2-.22-3.53-.44-1.32-.22-2.65-.88-2.42-1.76.22-.88,3.09-2.2,7.05-2.87-.22,1.32-.66,3.09-1.1,5.07"/>
  <path class="st0" d="M227.93,232.09c1.08-4.72,2.13-9.65,2.82-15.02l-.39-.32c-1.19.67-2.41,1.47-3.71,2.4-.6,5.47-1.54,10.75-2.75,16-.54,2.33-1.03,4.11-1.68,5.78l.48.52c1.11-.77,2.02-1.56,2.78-2.36.76-.7,1.58-3.2,2.45-7.01"/>
  <path class="st0" d="M239.92,229.98c-1.54-.44-3.08,0-4.85,1.1-1.54,1.32-2.64,2.87-3.09,4.85-.66,2.87.66,5.51,4.85,6.39.88.22,2.2.44,2.86.44-1.1,1.1-2.65,2.2-4.63,3.08-2.2.88-4.63,1.1-6.83.66-1.1-.22-1.98-.66-2.87-1.1l-.88,1.1c2.2,2.2,4.63,3.97,7.05,4.41,1.99.44,4.19,0,7.05-2.2,1.98-1.98,3.75-4.19,4.63-7.71,1.32-5.73-.44-10.36-3.31-11.02M238.82,238.13c-2.87-.66-4.41-2.2-4.19-3.31.22-.88,1.54-1.54,3.31-1.1,1.54.22,2.86,2.43,3.08,4.85-.66-.22-1.32-.22-2.2-.44"/>
  <path class="st0" d="M277.67,228.43l-.32.08c-.42,1.8-.75,3.41-.94,5,3.44,2.69,5.34,4.79,6.02,6.39.2.48.19.92,0,1.38-.82,1.95-3.2,4.36-5.67,5.4-1.57.66-6.08,1.84-8.1-2.94-.42-.99-.61-2.67-.47-4.6l-1.61-.07c-.41,3.26-.09,6,.88,8.29,1.91,4.53,6.23,6.36,10.95,4.36,3.08-1.3,6.15-4.47,7-7.97.1-2.29-.19-4.61-.9-6.29-1.51-3.58-3.9-6.5-6.85-9.05"/>
  <path class="st0" d="M272.44,225.52c-1.57-.58-3.31-1.01-5.24-1.28l-1.07,4.35c1.75.32,3.5.71,5.22,1.23.58-1.49.92-2.93,1.09-4.3"/>
  <path class="st0" d="M277.74,217.06l.39-.17.26-2.03c.02-.09.18-.19.43-.29.83-.35,2.56-.62,4.52-1.45,1.08-.45,1.99-1.22,2.58-2.42l-.19-2.77-.36-.04c-.55,1.16-1.41,1.98-2.61,2.49-2.3.97-4.49,1.08-5.81,1.64-1.42.6-1.84,1.86-1.22,3.71l2.02,1.31Z"/>
  <path class="st0" d="M283.67,215.12l-.5-.03c-.57,1.24-1.09,2.6-1.6,4.12,2.71,4.78,5.04,9.62,7.14,14.58.93,2.2,1.58,3.93,2.02,5.67l.69.14c.45-1.27.73-2.45.87-3.54.21-1.01-.59-3.51-2.12-7.12-1.88-4.46-3.92-9.07-6.5-13.82"/>
  <path class="st0" d="M309.12,208.05c-1.13-.63-2.46-1.21-3.99-1.68l-1.43,3.5c1.36.48,2.69.98,4.01,1.53.66-1.09,1.14-2.21,1.4-3.35"/>
  <path class="st0" d="M314.2,205.66c-1.14-.63-2.47-1.21-3.99-1.67l-1.43,3.5c1.36.48,2.69.98,4.02,1.52.66-1.09,1.14-2.21,1.41-3.35"/>
  <path class="st0" d="M328.31,211.9c-1.1-2.2-1.98-4.41-2.87-5.95l1.54-2.65c-2.87-1.98-4.63-3.31-5.29-4.85l-.44-.22c-.44,1.1-.88,1.98-1.1,2.64-.22.66-.22,1.54.22,2.42.44,1.1,3.53,5.95,5.95,11.68.44,1.1.66,1.77.44,2.42-.44.88-1.54,1.77-3.09,2.42h-.22l-.44.22c-1.1.44-2.2.88-3.75,1.1.22-1.76,0-3.53-.66-5.29-.66-1.55-1.76-2.87-3.31-3.97-1.1-.66-2.2-.88-3.09-.44-1.32.44-2.2,1.76-2.87,3.31-1.1,2.42-1.32,4.85-.22,7.27.44,1.1.88,1.98,1.55,2.87-.88.66-1.77,1.1-2.87,1.54l-.44.22-.44.22c-2.65,1.1-4.63-.22-7.05-2.43l-.44.22c-.22,1.32-.22,2.65-.22,4.19,1.54,1.32,3.09,2.43,4.41,3.09.22,1.54,0,3.53-.88,5.51-1.1,1.98-2.42,3.53-4.63,4.41-.44.22-1.32.44-2.2.66l-.22,1.32c3.31.44,5.73.22,7.49-.44,1.99-.88,3.09-2.87,3.53-5.51.44-1.55.44-3.53-.44-5.73.66-.22,1.32-.22,2.42-.66h.22l.44-.22.22-.22c2.86-1.1,4.85-2.65,6.39-4.19,3.75-.44,5.51-.66,9.04-2.2l.22-.22h.44c2.2-1.1,3.09-2.42,3.53-3.97.22-1.1.22-1.98.22-3.09,0-1.76-.22-3.3-1.1-5.51M314.86,222.27c-1.98.22-3.53-.22-4.41-1.32,0-1.98,1.1-3.97,2.64-4.63,1.54-.88,3.75.88,4.19,1.98.44.66-.44,2.43-2.42,3.97"/>
  <path class="st0" d="M337.27,209.04c-1.88-4.46-3.92-9.07-6.51-13.82l-.5-.03c-.57,1.24-1.09,2.6-1.6,4.12,2.71,4.79,5.04,9.62,7.14,14.58.93,2.2,1.58,3.94,2.02,5.67l.69.14c.44-1.27.73-2.45.87-3.54.21-1.01-.59-3.51-2.11-7.12"/>
  <path class="st0" d="M312.88,360.69l-39.9,1.1h40.34l-.44-1.1ZM372.62,359.15c-.88-.44-1.98-.88-2.87-.88-1.76-.88-3.53-1.1-5.51-1.1h-228.8c-1.98,0-3.97.44-5.95,1.1-.88.22-1.76.66-2.65,1.1-5.95,3.09-9.92,9.26-9.92,16.31,0,10.36,8.38,18.74,18.51,18.74h228.8c10.14,0,18.52-8.38,18.52-18.74,0-7.06-4.19-13.45-10.14-16.53M364.24,389.78h-228.8c-7.71,0-13.89-6.39-13.89-14.1s6.17-13.89,13.89-13.89h228.8c7.71,0,13.89,6.17,13.89,13.89s-6.17,14.1-13.89,14.1"/>
  <path class="st0" d="M376.36,358.26c-2.43-6.61-7.94-11.68-14.77-13.89-2.42-5.07-8.38-7.71-8.6-7.93h-.44c-.66-1.77-1.77-2.87-2.42-3.31l-.44-.44-1.76-3.97c-1.32-2.65-3.75-4.41-6.61-4.63-7.5-.66-21.6-1.98-35.71-1.76-1.54,0-3.09,0-4.63.22-8.82.22-17.19,1.1-24.25,3.09-14.55,3.97-21.82,12.56-25.13,18.96-.66.66-.88,1.54-1.1,2.2-.66,1.1-1.1,1.98-1.1,2.65-.66,1.32-1.1,2.43-1.32,3.53,0,.22-.22.22-.22.22v-.22c.22-.22,0-.44,0-.66-.22-.44-.44-.88-.66-1.32v-.44c-.22-.22-.22-.44-.22-.44v-.66c-1.98-5.73-8.82-18.51-27.55-23.81-6.39-1.98-14.33-2.87-22.48-3.09-1.54,0-3.31-.22-4.85,0-14.77-.44-29.53.66-37.47,1.54-2.86.22-5.29,1.98-6.61,4.63l-1.76,3.97c0,.22-1.76,1.1-2.65,3.75h-.66c-.22.22-6.17,2.86-8.6,7.93-6.83,2.2-12.34,7.27-14.77,13.89l-.22.88,7.5.22,53.34,1.32,4.85.22,35.49.88,26.45.66h1.98l24.03-.66,39.9-1.1h4.85l54.89-1.54h3.97l-.22-.88ZM352.56,337.55s.22,0,.44.22c1.32.66,5.29,2.87,7.28,6.39-1.54-.44-3.09-.66-4.63-.66l-26.89-.22-3.08-.22h-13.45l-4.85-.22h-11.02l-33.28-.44h-.22c-.66,0-1.54,0-2.2.22,5.51-2.42,13.45-4.41,25.13-5.07,6.84-.44,13.45-.66,19.62-.88h4.85c3.97-.22,7.49-.22,11.02-.22,2.87,0,5.51,0,7.94.22.44-.22.88-.22,1.32-.22.66,0,1.1,0,1.54.22h2.87c8.6.22,14.55.66,16.75.88h.88ZM276.95,326.74c7.05-1.98,15.65-2.87,24.47-3.09,1.54-.22,3.09-.22,4.63-.22h2.42c13.23,0,25.79,1.1,32.62,1.76,2.64.22,4.63,1.77,5.73,4.19l1.76,3.3h-70.76c-9.92,0-16.75,2.87-21.16,6.61,3.97-4.85,10.36-9.92,20.28-12.56M277.83,333.8h71.42l.22.22c.44.44,1.1,1.1,1.76,2.2-1.98,0-5.95-.22-11.46-.44-.44-.22-.88-.22-1.32-.22s-.88,0-1.32.22c-.88-.22-1.77-.22-2.64-.22h-.22c-6.39-.22-14.77-.22-24.46,0h-4.85c-5.95.22-12.34.44-19.18.88-18.73,1.1-28.21,5.29-33.06,9.7-.22,0-.44.22-.66.44,3.53-6.17,10.58-12.78,25.79-12.78M149.11,329.39c1.1-2.42,3.31-3.97,5.73-4.19,7.71-.88,22.26-1.98,36.81-1.54,1.76-.22,3.31,0,4.85,0,8.16.22,16.09,1.1,22.49,3.09,10.36,2.87,16.97,8.16,21.16,13.23-4.41-3.97-11.24-7.28-21.82-7.28h-70.76l1.54-3.3ZM146.46,334.02l.22-.22h71.64c14.77,0,22.04,6.39,25.35,12.34-4.63-4.19-13.89-8.59-33.28-9.7-6.17-.44-11.9-.66-17.41-.88h-5.07c-10.36-.22-19.4-.22-26.23,0h-.22c-.66,0-1.54,0-2.2.22h-.44c-.44-.22-.88-.22-1.1-.22-.44,0-.88,0-1.32.22h-.22c-5.29.22-9.26.44-11.24.44.44-1.1,1.1-1.76,1.54-2.2M143.16,337.55h.66c.22,0,.44-.22.66,0,2.42-.44,8.16-.66,16.53-.88h2.87c.44-.22.88-.22,1.32-.22.66,0,1.1,0,1.54.22,5.95-.22,13-.22,20.94,0h4.85c5.51.22,11.46.44,17.63.88,11.68.66,19.62,2.64,25.13,5.07-.66-.22-1.54-.22-2.2-.22h-.22l-33.28.44h-8.82l-5.07.22h-15.87l-2.65.22-26.89.22c-1.54,0-2.87.22-4.41.66,1.99-3.75,6.39-5.95,7.28-6.61M185.48,359.59h-4.85l-51.14-1.32-8.38-.22c2.2-5.95,7.05-10.36,12.78-12.34h.66c.22-.22.44-.22.66-.22,1.54-.44,3.31-.66,5.07-.66l33.5-.44h3.53l2.64-.22h10.36l9.7-.22h5.51l27.33-.44h.22c5.51,0,10.36,3.08,12.56,7.93.22.22.22.44.22.66.22.22.22.44.22.66h.22c.22,1.1.66,2.2.66,3.31v5.07l-61.5-1.54ZM369.75,358.26l-52.46,1.1-4.63.22-61.06,1.54h-2.86l-.22-2.2.22-1.54v-.22l.22-.44v-.66c0-.88.22-1.76.66-2.65v-.22c0-.22,0-.44.22-.66q0-.22.22-.44c0-.22.22-.44.22-.66.44-.66.88-1.54,1.32-2.21,2.65-3.52,6.61-5.73,11.24-5.73h.22l27.55.44h5.51l11.68.22h8.38l2.87.22h2.87l33.72.44c1.76,0,3.53.22,5.07.66.44,0,.66.22.88.22s.44.22.66.22c5.73,1.98,10.36,6.39,12.78,12.12l-5.29.22Z"/>
</svg>