<?xml version="1.0" encoding="UTF-8"?>
<svg id="Layer_1" xmlns="http://www.w3.org/2000/svg" version="1.1" xmlns:xlink="http://www.w3.org/1999/xlink" viewBox="0 0 500 500">
  <!-- Generator: Adobe Illustrator 30.2.1, SVG Export Plug-In . SVG Version: 2.1.1 Build 1)  -->
  <defs>
    <style>
      .st0 {
        fill: url(#linear-gradient2);
      }

      .st1 {
        clip-path: url(#clippath-6);
      }

      .st2 {
        clip-path: url(#clippath-7);
      }

      .st3 {
        clip-path: url(#clippath-4);
      }

      .st4 {
        fill: #221e20;
      }

      .st5 {
        fill: #01a34d;
      }

      .st6 {
        clip-path: url(#clippath-9);
      }

      .st7 {
        clip-path: url(#clippath-10);
      }

      .st8 {
        fill: #fff;
      }

      .st9 {
        fill: url(#linear-gradient1);
      }

      .st10 {
        fill: #5f6060;
      }

      .st11 {
        fill: none;
      }

      .st12 {
        fill: #09783d;
      }

      .st13 {
        fill: url(#radial-gradient);
      }

      .st14 {
        fill: url(#radial-gradient1);
      }

      .st15 {
        clip-path: url(#clippath-1);
      }

      .st16 {
        clip-path: url(#clippath-5);
      }

      .st17 {
        clip-path: url(#clippath-8);
      }

      .st18 {
        clip-path: url(#clippath-3);
      }

      .st19 {
        fill: url(#linear-gradient4);
      }

      .st20 {
        fill: #b0b2b4;
      }

      .st21 {
        fill: url(#linear-gradient5);
      }

      .st22 {
        fill: url(#linear-gradient3);
      }

      .st23 {
        fill: url(#radial-gradient2);
      }

      .st24 {
        fill: #221e1f;
      }

      .st25 {
        fill: url(#linear-gradient6);
      }

      .st26 {
        clip-path: url(#clippath-2);
      }

      .st27 {
        fill: url(#linear-gradient);
      }

      .st28 {
        clip-path: url(#clippath);
      }

      .st29 {
        fill: #00a34e;
      }
    </style>
    <clipPath id="clippath">
      <polygon class="st11" points="173.8 88.16 79.47 88.16 79.47 182.49 12.78 249.17 79.47 315.88 79.47 412.34 175.96 412.34 244.17 480.58 312.39 412.34 406.72 412.34 406.72 318.04 473.4 251.33 406.72 184.64 406.72 88.16 310.23 88.16 242.01 19.94 173.8 88.16"/>
    </clipPath>
    <radialGradient id="radial-gradient" cx="-708.79" cy="792.81" fx="-708.79" fy="792.81" r="2.4" gradientTransform="translate(-85507.94 76980.71) rotate(90) scale(108.3 -108.3)" gradientUnits="userSpaceOnUse">
      <stop offset="0" stop-color="#f7d523"/>
      <stop offset="1" stop-color="#c12128"/>
    </radialGradient>
    <clipPath id="clippath-1">
      <path class="st11" d="M201.72,138.69c0,27.04,21.92,48.97,48.97,48.97s48.97-21.92,48.97-48.97-21.92-48.97-48.97-48.97-48.97,21.92-48.97,48.97"/>
    </clipPath>
    <radialGradient id="radial-gradient1" cx="-704.66" cy="799.83" fx="-704.66" fy="799.83" r="2.4" gradientTransform="translate(14656.15 16478.97) scale(20.44 -20.44)" gradientUnits="userSpaceOnUse">
      <stop offset="0" stop-color="#f7d523"/>
      <stop offset="1" stop-color="#cc3a27"/>
    </radialGradient>
    <clipPath id="clippath-2">
      <path class="st11" d="M108.01,260.05s9.63,18.83,55.66,14.65c46.03-4.18,78.25,10.88,87.04,34.31v-140.6s-14.65-19.67-46.87-14.64c-22.18,2.51-29.71-5.44-29.71-5.44l-66.12,111.73Z"/>
    </clipPath>
    <linearGradient id="linear-gradient" x1="-708.72" y1="795.44" x2="-706.33" y2="795.44" gradientTransform="translate(-22267.41 20199.27) rotate(90) scale(28.22 -28.22)" gradientUnits="userSpaceOnUse">
      <stop offset="0" stop-color="#eaeaea"/>
      <stop offset=".52" stop-color="#9b9c9f"/>
      <stop offset="1" stop-color="#eaeaea"/>
    </linearGradient>
    <clipPath id="clippath-3">
      <path class="st11" d="M293.37,154.18c-20.49-4.19-41,2.94-42.68,14.24v140.6s11.73-32.64,47.3-32.64,71.56,6.28,92.05-14.24l-65.28-113.81s-10.87,10.04-31.39,5.85"/>
    </clipPath>
    <linearGradient id="linear-gradient1" x1="-707.24" y1="793.97" x2="-704.85" y2="793.97" gradientTransform="translate(27544.05 30920.05) scale(38.66 -38.66)" xlink:href="#linear-gradient"/>
    <clipPath id="clippath-4">
      <polygon class="st11" points="150.26 156.26 84.98 269.67 108.01 260.05 174.11 148.33 150.26 156.26"/>
    </clipPath>
    <linearGradient id="linear-gradient2" x1="-705.47" y1="778.96" x2="-703.07" y2="778.96" gradientTransform="translate(8231.8 -7107.5) rotate(-90) scale(10.4 -10.4)" xlink:href="#linear-gradient"/>
    <clipPath id="clippath-5">
      <polygon class="st11" points="390.04 262.14 412.23 272.61 344.44 155.43 324.76 148.33 390.04 262.14"/>
    </clipPath>
    <linearGradient id="linear-gradient3" x1="-681.11" y1="796.31" x2="-678.72" y2="796.31" gradientTransform="translate(5183.58 5849.34) scale(7.08 -7.08)" xlink:href="#linear-gradient"/>
    <clipPath id="clippath-6">
      <path class="st11" d="M170.85,169.57c0,44.09,35.75,79.84,79.84,79.84s79.84-35.75,79.84-79.84-35.75-79.84-79.84-79.84-79.84,35.75-79.84,79.84"/>
    </clipPath>
    <radialGradient id="radial-gradient2" cx="-706.34" cy="795.99" fx="-706.34" fy="795.99" r="2.4" gradientTransform="translate(23794.3 26684.08) scale(33.33 -33.33)" xlink:href="#radial-gradient1"/>
    <clipPath id="clippath-7">
      <path class="st11" d="M108.01,260.05s9.63,18.83,55.66,14.65c46.03-4.18,78.25,10.88,87.04,34.31v-140.6s-14.65-19.67-46.87-14.64c-22.18,2.51-29.71-5.44-29.71-5.44l-66.12,111.73Z"/>
    </clipPath>
    <clipPath id="clippath-8">
      <path class="st11" d="M293.37,154.18c-20.49-4.19-41,2.94-42.68,14.24v140.6s11.73-32.64,47.3-32.64,71.56,6.28,92.05-14.24l-65.28-113.81s-10.87,10.04-31.39,5.85"/>
    </clipPath>
    <linearGradient id="linear-gradient4" x1="-707.24" y1="793.97" x2="-704.85" y2="793.97" gradientTransform="translate(27544.05 30920.05) scale(38.66 -38.66)" xlink:href="#linear-gradient"/>
    <clipPath id="clippath-9">
      <polygon class="st11" points="150.26 156.26 84.98 269.67 108.01 260.05 174.11 148.33 150.26 156.26"/>
    </clipPath>
    <linearGradient id="linear-gradient5" x1="-705.47" y1="778.96" x2="-703.07" y2="778.96" gradientTransform="translate(8231.8 -7107.5) rotate(-90) scale(10.4 -10.4)" xlink:href="#linear-gradient"/>
    <clipPath id="clippath-10">
      <polygon class="st11" points="390.04 262.14 412.23 272.61 344.44 155.43 324.76 148.33 390.04 262.14"/>
    </clipPath>
    <linearGradient id="linear-gradient6" x1="-681.11" y1="796.31" x2="-678.72" y2="796.31" gradientTransform="translate(5183.58 5849.34) scale(7.08 -7.08)" xlink:href="#linear-gradient"/>
  </defs>
  <g class="st28">
    <rect class="st13" x="-52.31" y="-45.13" width="590.8" height="590.78" transform="translate(-75.42 392.64) rotate(-69.92)"/>
  </g>
  <g>
    <rect class="st8" x="247.35" y="27.07" width="2.51" height="76.26"/>
    <rect class="st8" x="238.07" y="79.32" width="70.97" height="2.51" transform="translate(89.7 298.58) rotate(-66.27)"/>
    <rect class="st8" x="264.48" y="94.7" width="52.83" height="2.51" transform="translate(27.56 252.43) rotate(-48.97)"/>
    <rect class="st8" x="280.87" y="108.04" width="68.86" height="2.51" transform="translate(-12.96 169.35) rotate(-29.49)"/>
    <rect class="st8" x="222.94" y="45.1" width="2.51" height="70.97" transform="translate(-13.47 97.04) rotate(-23.73)"/>
    <rect class="st8" x="205.6" y="69.54" width="2.51" height="52.83" transform="translate(-12.19 159.34) rotate(-41.02)"/>
    <rect class="st8" x="181.2" y="74.87" width="2.51" height="68.86" transform="translate(-2.49 214.33) rotate(-60.51)"/>
    <rect class="st8" x="287.32" y="129.49" width="122.08" height="2.51" transform="translate(-14.06 46.49) rotate(-7.48)"/>
    <polygon class="st8" points="90.67 124.03 214.95 142.03 215.31 139.54 91.03 121.55 90.67 124.03"/>
    <rect class="st8" x="381.47" y="146.49" width="5.02" height="58.06" transform="translate(124.65 508.68) rotate(-76.67)"/>
    <rect class="st8" x="87.7" y="171.75" width="61.11" height="5.02" transform="translate(-41.19 36.68) rotate(-15.05)"/>
    <path class="st8" d="M97.6,243.45c-20.88,11.5-52.64,28.91-54.58,29.76l.96,2.32.93,2.33c2.12-.85,46.28-25.15,55.1-30.01l-2.42-4.4Z"/>
    <rect class="st8" x="75.69" y="310.38" width="75.29" height="5.02" transform="translate(-208.96 230.01) rotate(-55.67)"/>
    <rect class="st8" x="122.18" y="353.78" width="117.28" height="5.02" transform="translate(-212.78 424.98) rotate(-72.99)"/>
    <rect class="st8" x="246.51" y="318.11" width="5.02" height="162.88" transform="translate(-2.05 1.28) rotate(-.29)"/>
    <rect class="st8" x="315.77" y="306.4" width="5.02" height="112.76" transform="translate(-94.33 112.45) rotate(-17.49)"/>
    <rect class="st8" x="386.38" y="279.85" width="5.02" height="74.18" transform="translate(-110.21 266.12) rotate(-33.37)"/>
    <rect class="st8" x="424.36" y="225.78" width="5.02" height="68.11" transform="translate(-14.28 494.61) rotate(-59.35)"/>
    <path class="st29" d="M150.26,156.26l-5.85,2.1-68.63,114.24,157.34,52.3s8.77,4.6,17.57,4.6,169.06-56.9,169.06-56.9l-67.37-116.35-7.94-.83-194.18.83Z"/>
  </g>
  <g class="st15">
    <rect class="st14" x="201.72" y="89.72" width="97.94" height="97.94"/>
  </g>
  <path class="st20" d="M412.23,272.61l-139.77,42.68s-11.73,8.79-21.77-6.28c0,0-7.11,14.21-20.49,7.11l-145.22-46.45,65.28-113.41,23.85-7.94,71.56,41.43,79.09-41.43s19.68,5.85,19.68,7.1,67.79,117.18,67.79,117.18"/>
  <g class="st26">
    <rect class="st27" x="87.68" y="144.26" width="183.34" height="168.81" transform="translate(-77.37 364.86) rotate(-79.84)"/>
  </g>
  <g class="st18">
    <rect class="st9" x="246.78" y="144.96" width="147.16" height="167.41" transform="translate(-10.97 16.21) rotate(-2.85)"/>
  </g>
  <g class="st3">
    <rect class="st0" x="54.85" y="140.52" width="149.39" height="136.95" transform="translate(-116.08 220.34) rotate(-60.85)"/>
  </g>
  <g class="st16">
    <rect class="st22" x="299.78" y="134.83" width="137.43" height="151.27" transform="translate(-55.87 209.4) rotate(-29.59)"/>
  </g>
  <g>
    <path class="st8" d="M265.97,300.22s24.69-13.39,35.36-13.81c0,0-27.41-6.9-35.36,13.81"/>
    <path class="st8" d="M235.64,300.22s-24.69-13.39-35.36-13.81c0,0,27.41-6.9,35.36,13.81"/>
    <path class="st8" d="M246.62,359.91s-4.08-20.99-30.23-28.31c-21.2-5.94-56.83-2.94-69.57-1.59-2.92.31-5.45,2.11-6.72,4.76l-2.17,4.56,108.7,20.57Z"/>
    <path class="st10" d="M247.41,360.7l-110.41-20.89,2.52-5.3c1.37-2.87,4.06-4.79,7.21-5.12,13.98-1.48,48.75-4.29,69.81,1.6,26.22,7.34,30.64,28.58,30.68,28.79l.18.91ZM138.84,338.88l106.93,20.23c-1.17-4.09-7.21-20.65-29.55-26.9-20.84-5.84-55.43-3.04-69.34-1.57-2.71.29-5.03,1.94-6.21,4.41l-1.82,3.83Z"/>
    <path class="st8" d="M247.16,364.63s-1.06-25.29-31.82-25.29h-77.41s-2.51,1.47-3.35,5.44l112.58,19.85Z"/>
    <path class="st10" d="M247.82,365.39l-.77-.14-113.22-19.96.13-.63c.88-4.2,3.53-5.79,3.65-5.85l.15-.09h77.58c31,0,32.43,25.63,32.44,25.89l.03.78ZM135.35,344.28l111.12,19.6c-.46-4.28-4.03-23.91-31.12-23.91h-77.23c-.46.33-2.02,1.58-2.77,4.31"/>
    <path class="st8" d="M247.16,364.63s3.96-18.81-40.39-21.31c-44.36-2.51-72.39,0-72.39,0,0,0-8.79,3.77-10.04,11.09-1.26,7.32,122.83,10.23,122.83,10.23"/>
    <path class="st10" d="M247.66,365.27h-.52c-12-.29-117.43-2.96-123.1-9.84-.36-.44-.38-.86-.34-1.13,1.3-7.57,10.04-11.4,10.41-11.56l.19-.05c.28-.02,28.59-2.49,72.48,0,24.45,1.39,34.27,7.79,38.2,12.93,3.65,4.76,2.81,8.97,2.78,9.14l-.11.51ZM134.53,343.94c-.91.41-8.47,4.06-9.58,10.58,4.52,5.54,88.78,8.7,121.66,9.48.08-1.19-.03-4.28-2.64-7.66-3.78-4.91-13.32-11.04-37.24-12.39-42.46-2.41-70.28-.17-72.2,0"/>
    <path class="st8" d="M247.77,370.1l-138.3-3.56c3.27-9.18,11.9-15.36,21.65-15.49l100.1-1.34c8.1-.07,14.94,5.99,15.84,14.04l.71,6.34Z"/>
    <path class="st10" d="M248.47,370.75l-139.88-3.6.29-.82c3.34-9.38,12.27-15.77,22.23-15.91l100.1-1.33h.14c8.39,0,15.39,6.25,16.33,14.6l.79,7.06ZM110.37,365.94l136.7,3.52-.63-5.63c-.87-7.71-7.34-13.48-15.08-13.48h-.13l-100.09,1.34c-9.15.12-17.38,5.82-20.76,14.26"/>
    <path class="st8" d="M248.31,359.91s4.08-20.99,30.23-28.31c21.2-5.94,56.83-2.94,69.57-1.59,2.92.31,5.45,2.11,6.72,4.76l2.17,4.56-108.69,20.57Z"/>
    <path class="st10" d="M247.52,360.7l.17-.91c.04-.22,4.46-21.45,30.68-28.79,21.05-5.89,55.83-3.09,69.8-1.6,3.15.33,5.85,2.24,7.22,5.12l2.52,5.3-110.4,20.89ZM312.86,328.66c-12.06,0-24.55.86-34.15,3.54-22.35,6.26-28.38,22.82-29.55,26.9l106.92-20.23-1.82-3.83c-1.18-2.47-3.5-4.12-6.22-4.41-7.5-.8-21.04-1.98-35.19-1.98"/>
    <path class="st8" d="M247.77,364.63s1.06-25.29,31.82-25.29h77.41s2.51,1.47,3.35,5.44l-112.58,19.85Z"/>
    <path class="st10" d="M247.11,365.39l.03-.78c0-.26,1.44-25.89,32.44-25.89h77.58l.15.09c.11.06,2.76,1.65,3.65,5.85l.13.63-113.99,20.1ZM279.59,339.97c-27.1,0-30.67,19.62-31.12,23.9l111.12-19.59c-.75-2.72-2.3-3.98-2.76-4.31h-77.23Z"/>
    <path class="st8" d="M247.77,364.63s-3.96-18.81,40.39-21.31c44.36-2.51,72.39,0,72.39,0,0,0,8.79,3.77,10.04,11.09,1.26,7.32-122.83,10.23-122.83,10.23"/>
    <path class="st10" d="M247.26,365.27l-.11-.51c-.04-.18-.87-4.38,2.77-9.15,3.93-5.13,13.74-11.54,38.2-12.93,43.89-2.49,72.2-.02,72.48,0l.19.05c.37.16,9.11,3.99,10.41,11.56.05.27.03.69-.34,1.13-5.67,6.88-111.1,9.55-123.1,9.83h-.52ZM326.52,342.84c-10.71,0-23.64.27-38.32,1.11-23.92,1.35-33.45,7.49-37.24,12.39-2.61,3.38-2.71,6.47-2.64,7.66,32.87-.78,117.13-3.94,121.59-9.36-1.05-6.63-8.61-10.29-9.51-10.7-1.26-.11-13.6-1.1-33.88-1.1"/>
    <path class="st8" d="M247.16,370.1l138.3-3.56c-3.27-9.18-11.9-15.36-21.65-15.49l-100.1-1.34c-8.1-.07-14.94,5.99-15.84,14.04l-.71,6.34Z"/>
    <path class="st10" d="M246.45,370.75l.79-7.06c.94-8.35,7.94-14.6,16.32-14.6h.14l100.1,1.33c9.96.13,18.89,6.53,22.24,15.91l.29.82-139.88,3.6ZM263.57,350.35c-7.74,0-14.21,5.77-15.08,13.48l-.63,5.63,136.69-3.52c-3.38-8.44-11.62-14.14-20.76-14.26l-100.1-1.34h-.13Z"/>
    <path class="st8" d="M126,402.74c-9.69,0-17.57-7.88-17.57-17.57s7.89-17.58,17.57-17.58h246.89c9.69,0,17.57,7.89,17.57,17.58s-7.89,17.57-17.57,17.57H126Z"/>
    <path class="st29" d="M372.89,370.1c8.32,0,15.06,6.74,15.06,15.06s-6.74,15.06-15.06,15.06H126c-8.32,0-15.06-6.75-15.06-15.06s6.75-15.06,15.06-15.06h246.89M372.89,365.08H126c-11.08,0-20.09,9.01-20.09,20.09s9.01,20.08,20.09,20.08h246.89c11.08,0,20.09-9.01,20.09-20.08s-9.01-20.09-20.09-20.09"/>
    <path class="st8" d="M426.47,178.76v-104.82h-104.82l-62.87-62.87h-22.49l-62.87,62.87h-102.66v102.66l-61.92,61.91v21.34l61.92,61.94v104.8h104.82l62.32,62.34h23.6l62.32-62.34h102.66v-102.64l64.7-64.73v-15.77l-64.7-64.7ZM405.1,405.25h-90.14l-65.28,65.28-65.28-65.28h-92.29v-92.32l-39.27-39.27-3.72-3.69-20.79-20.79,63.77-63.75v-90.16h90.13l11.95-11.95,1.78-1.78,18.93-18.93,1.91-1.91,30.53-30.53.18-.18,2.34,2.34,30.26,30.25,20.41,20.42,1.76,1.76,10.52,10.52h92.29v92.32l63.77,63.75-19.13,19.13-3.67,3.67-40.97,40.95v90.16Z"/>
    <polygon class="st5" points="429.6 177.46 429.6 70.8 322.94 70.8 266.35 14.2 488.03 14.2 488.03 235.88 429.6 177.46"/>
    <path class="st24" d="M484.89,17.34v210.96l-52.15-52.15v-108.5h-108.5l-50.31-50.32h210.96ZM491.17,11.07h-232.39l62.87,62.87h104.82v104.82l64.7,64.7V11.07Z"/>
    <polygon class="st5" points="11.97 14.2 228.7 14.2 172.11 70.79 67.61 70.79 67.61 175.3 11.97 230.93 11.97 14.2"/>
    <path class="st24" d="M221.12,17.34l-50.31,50.32h-106.34v106.34l-49.36,49.36V17.34h206.01ZM236.28,11.07H8.83v227.45l61.91-61.91v-102.66h102.66l62.87-62.87Z"/>
    <polygon class="st5" points="11.97 485.79 11.97 267.43 67.61 323.09 67.61 429.73 174.27 429.73 230.31 485.79 11.97 485.79"/>
    <path class="st24" d="M15.11,275.01l49.36,49.38v108.47h108.5l49.77,49.79H15.11v-207.64ZM8.83,259.85v229.08h229.05l-62.31-62.34h-104.82v-104.8l-61.91-61.94Z"/>
    <polygon class="st5" points="269.06 485.79 325.1 429.73 429.61 429.73 429.61 325.25 488.03 266.8 488.03 485.79 269.06 485.79"/>
    <path class="st24" d="M484.89,274.38v208.27h-208.25l49.77-49.79h106.34v-106.32l52.15-52.17ZM491.17,259.23l-64.7,64.73v102.64h-102.66l-62.32,62.34h229.68v-229.71Z"/>
    <path class="st4" d="M412.23,184.66v-96.49h-96.49l-8.76-8.76-1.78-1.78-20.14-20.14-37.54-37.54-58,58-10.22,10.22h-94.33v94.33L18.3,249.18l28,27.99,38.69,38.72v96.46h96.49l65.43,65.45.03.03,2.76,2.76,2.23-2.26,65.98-65.98h94.33v-94.3l40.15-40.17,26.54-26.54-66.68-66.69ZM405.1,405.25h-90.14l-65.28,65.28-65.28-65.28h-92.29v-92.32l-39.27-39.27-3.72-3.69-20.79-20.79,63.77-63.75v-90.16h90.13l11.95-11.95,1.78-1.78,18.93-18.93,1.91-1.91,30.53-30.53.18-.18,2.34,2.34,30.26,30.25,20.41,20.42,1.76,1.76,10.52,10.52h92.29v92.32l63.77,63.75-19.13,19.13-3.67,3.67-40.97,40.95v90.16Z"/>
    <path class="st4" d="M268.18,221.62c2.08.29,3.96.76,5.66,1.38-.18,1.49-.55,3.04-1.18,4.65-1.85-.56-3.75-.99-5.63-1.33l1.16-4.7ZM279.49,226.14c3.18,2.75,5.76,5.9,7.39,9.77.76,1.81,1.08,4.31.97,6.79-.92,3.78-4.24,7.2-7.56,8.6-5.09,2.15-9.75.17-11.82-4.71-1.05-2.48-1.4-5.43-.96-8.95l1.75.08c-.15,2.08.06,3.89.51,4.96,2.18,5.16,7.06,3.89,8.75,3.18,2.67-1.13,5.24-3.73,6.12-5.83.2-.49.21-.97,0-1.49-.74-1.74-2.78-4-6.5-6.9.21-1.72.56-3.45,1.02-5.4l.34-.08Z"/>
    <path class="st4" d="M279.56,213.86l-2.18-1.42c-.66-2-.21-3.36,1.32-4.01,1.42-.6,3.8-.73,6.28-1.77,1.3-.55,2.23-1.44,2.82-2.69l.39.04.21,2.98c-.64,1.29-1.63,2.12-2.79,2.61-2.11.89-3.98,1.18-4.88,1.56-.26.11-.44.21-.46.31l-.28,2.2-.42.18ZM293.58,238.05c-.48-1.87-1.18-3.74-2.18-6.12-2.27-5.36-4.78-10.58-7.71-15.75.55-1.64,1.11-3.1,1.73-4.44l.54.03c2.79,5.14,4.99,10.12,7.02,14.93,1.65,3.9,2.51,6.6,2.29,7.69-.15,1.18-.46,2.45-.94,3.82l-.74-.15Z"/>
    <path class="st4" d="M313.65,229.22l-.45.19c-1.09.46-2.02.59-2.95.69,1.08,2.56.98,4.53.65,6.34-.54,2.77-1.65,4.93-3.81,5.85-1.95.83-4.53,1.07-8.06.51l.06-1.49c1.14-.1,1.98-.34,2.56-.58,2.22-.94,3.76-2.58,4.79-4.71,1.11-2.23,1.41-4.4,1.09-6.04-1.55-.8-3.2-1.89-4.87-3.35.04-1.6.12-3.09.32-4.46l.4-.17c2.59,2.29,4.86,3.68,7.81,2.43l.37-.16,2.1,4.96Z"/>
    <path class="st4" d="M309.14,202.32c1.64.51,3.09,1.12,4.31,1.81-.29,1.23-.8,2.44-1.52,3.62-1.43-.59-2.87-1.12-4.34-1.65l1.55-3.78ZM311.93,224.1c1.24-.52,2.36-1.11,3.23-1.72-.68-.88-1.3-1.9-1.8-3.09-1.15-2.73-.87-5.31.28-7.81.77-1.7,1.81-3.07,3.16-3.64,1.06-.45,2.18-.16,3.26.49,1.83,1.1,2.94,2.62,3.68,4.35.78,1.86.91,3.79.8,5.71,1.46-.38,2.79-.83,3.96-1.3l.37-.16,2.1,4.96-.37.16c-3.88,1.64-5.57,1.97-9.81,2.33-1.65,1.83-3.84,3.43-6.74,4.66l-.37.15c-1.27.54-2.39-.51-2.9-1.7-.51-1.19-.47-2.72.8-3.26l.37-.16ZM314.62,199.75c1.64.5,3.09,1.12,4.31,1.8-.29,1.23-.8,2.44-1.52,3.62-1.43-.59-2.87-1.12-4.34-1.64l1.55-3.78ZM319.68,219.48c2.05-1.63,2.96-3.44,2.62-4.26-.51-1.19-2.82-2.99-4.59-2.24-1.69.72-2.79,3.05-2.82,5.05.85,1.19,2.52,1.62,4.79,1.46"/>
    <path class="st4" d="M327.03,193.71c.69,1.64,2.54,3.22,5.7,5.4l-1.64,2.68c.92,1.86,1.95,4.18,2.98,6.61.93,2.21,1.25,4.06,1.34,5.89.05,1.09.01,2.16-.21,3.19-.48,1.75-1.51,3.27-3.89,4.28l-.37.15c-1.27.54-2.39-.51-2.9-1.7-.51-1.19-.47-2.73.8-3.26l.37-.16c1.69-.71,2.86-1.56,3.32-2.6.27-.62-.02-1.31-.59-2.65-2.61-6.18-5.81-11.31-6.33-12.55-.39-.92-.51-1.8-.26-2.61.25-.81.62-1.69,1.27-2.73l.4.06Z"/>
    <path class="st4" d="M344.44,216.56c-.48-1.87-1.18-3.74-2.18-6.12-2.26-5.36-4.78-10.58-7.71-15.75.55-1.63,1.11-3.1,1.73-4.44l.54.03c2.79,5.14,4.99,10.11,7.02,14.93,1.65,3.9,2.51,6.6,2.29,7.69-.16,1.18-.46,2.44-.94,3.82l-.75-.15Z"/>
    <path class="st4" d="M158.66,220.59c-2.8-.64-5.18-2.16-4.54-4.97.28-1.23.98-2.48,2.07-3.78,2.21-2.7,5.8-4.14,9.81-5.21l.23-1.41c1.09-.64,2.19-1.24,3.32-1.81l.42.23c-.46,2.63-1.15,5.76-2.06,9.75-.51,2.21-.89,3.89-.23,4.86.7.91,1.32,1.27,2.97,1.65l.39.09-1.2,5.25-.39-.09c-3.43-.79-4.8-1.74-5.46-4.38-1.84.21-3.63.19-5.33-.2M165.48,210.82c-4.36.82-7.33,2.1-7.58,3.18-.21.92,1.06,1.54,2.59,1.89,1.28.29,2.56.39,3.87.31.48-2.08.84-3.93,1.12-5.38M164.84,194.79c1.04,1.37,1.85,2.72,2.44,3.99-.96.83-2.08,1.51-3.35,2.05-.81-1.32-1.67-2.59-2.55-3.87l3.47-2.16ZM170.79,195.9c1.04,1.37,1.85,2.72,2.44,3.99-.96.83-2.09,1.51-3.36,2.05-.81-1.32-1.67-2.59-2.55-3.88l3.46-2.16Z"/>
    <path class="st4" d="M182.92,228.26l-.36-.08c-2.54-.58-4.81-1.6-5.74-4.33l-.08-.02c-1.94,1.52-4.06,2.08-6.49,1.52l-.39-.09c-1.34-.31-1.64-1.81-1.35-3.07.29-1.26,1.22-2.48,2.55-2.18l.39.09c1.87.43,2.96.29,4-.02,1.74-.54,2.26-2.19,3.16-3.25.74-.27,1.57-.58,2.55-.85l.16.2c-.59,1.03-.97,1.77-1.09,2.29-.29,1.23-.16,2.09.75,3.02.73.67,1.61,1.17,2.81,1.45l.33.07-1.2,5.25ZM179.85,206.55c1.26,1.29,2.34,2.61,3.29,3.99-.91,1.15-1.99,2.03-3.26,2.65-.93-1.2-2.1-2.5-3.38-3.84l3.34-2.8Z"/>
    <path class="st4" d="M211.53,234.82l-.39-.09c-3.13-.72-5.24-1.89-5.79-3.87l-.11-.03c-1.88,1.28-3.66,1.7-5.28,1.33-1.53-.35-2.43-1.33-2.59-2.94l-.14-.03c-1.83,1.07-3.28,1.6-5.12,1.17-1.4-.32-2.37-1.09-2.53-2.68-2,.9-4.12,1.15-6.27.66l-.39-.09c-1.34-.31-1.64-1.81-1.35-3.07.29-1.26,1.22-2.49,2.56-2.18l.39.09c2.35.54,4.03.49,5.27-.03.97-.39,1.81-1.24,3.04-2.23.81-.2,1.7-.38,2.67-.49l.24.34c-1.35,1.15-2.3,2.21-2.49,3.02-.22.97.25,1.47,1.14,1.67,1.26.29,2.15,0,2.89-.42,1.33-.77,1.78-1.86,2.8-2.95.85-.25,1.62-.4,2.5-.53l.16.31c-1.05,1.39-1.94,2.57-2.1,3.27-.26,1.13.13,1.77,1.02,1.97,1.34.31,2.3-.05,3.13-.69,1-.76,1.62-2.17,2.41-3.34.8-.29,1.6-.57,2.53-.77l.15.23c-.8,1.31-1.37,2.37-1.57,3.23-.42,1.84.83,3.06,4.01,3.79l.39.09-1.2,5.25Z"/>
    <path class="st4" d="M224.87,209.67c-.4,1.73.17,4.1,1.46,7.71l-2.89,1.21c-.35,2.05-.86,4.53-1.45,7.1-.54,2.34-1.37,4.03-2.36,5.57-.59.91-1.26,1.75-2.04,2.46-1.41,1.14-3.14,1.77-5.65,1.19l-.39-.09c-1.34-.31-1.64-1.81-1.35-3.07s1.21-2.48,2.56-2.17l.39.09c1.79.41,3.23.41,4.21-.17.58-.34.75-1.07,1.07-2.49,1.5-6.54,1.91-12.58,2.21-13.89.23-.97.64-1.76,1.31-2.27.68-.51,1.5-1.01,2.63-1.47l.29.29Z"/>
    <path class="st4" d="M225.6,238.38c.71-1.8,1.24-3.72,1.81-6.24,1.3-5.67,2.32-11.38,2.97-17.28,1.41-1,2.72-1.86,4-2.59l.42.34c-.74,5.8-1.88,11.12-3.05,16.21-.95,4.12-1.83,6.82-2.65,7.57-.82.86-1.81,1.71-3,2.54l-.51-.56Z"/>
    <path class="st4" d="M241.26,239.85c-4.3-.99-5.92-3.82-5.23-6.78.51-2.23,1.67-3.98,3.54-5.3,1.82-1.13,3.6-1.72,5.24-1.34,3.1.71,4.8,5.72,3.38,11.91-.88,3.83-2.67,6.4-4.99,8.44-3.12,2.43-5.46,2.92-7.44,2.46-2.68-.62-5.24-2.39-7.65-4.85l.92-1.31c.92.6,1.93,1.08,3.1,1.34,2.32.53,4.87.18,7.46-.86,2.1-.84,3.78-1.98,5-3.33-.92.04-2.14-.13-3.32-.4M242.5,230.52c-1.9-.44-3.33.31-3.53,1.18-.28,1.21,1.58,2.96,4.57,3.65.9.2,1.66.32,2.36.37-.16-2.52-1.69-4.81-3.39-5.2"/>
    <rect class="st8" x="247.35" y="27.07" width="2.51" height="76.26"/>
    <rect class="st8" x="238.07" y="79.32" width="70.97" height="2.51" transform="translate(89.7 298.58) rotate(-66.27)"/>
    <rect class="st8" x="264.48" y="94.7" width="52.83" height="2.51" transform="translate(27.56 252.43) rotate(-48.97)"/>
    <rect class="st8" x="280.87" y="108.04" width="68.86" height="2.51" transform="translate(-12.96 169.35) rotate(-29.49)"/>
    <rect class="st8" x="222.94" y="45.1" width="2.51" height="70.97" transform="translate(-13.47 97.04) rotate(-23.73)"/>
    <rect class="st8" x="205.6" y="69.54" width="2.51" height="52.83" transform="translate(-12.19 159.34) rotate(-41.02)"/>
    <rect class="st8" x="181.2" y="74.87" width="2.51" height="68.86" transform="translate(-2.49 214.33) rotate(-60.51)"/>
    <rect class="st8" x="287.32" y="129.49" width="122.08" height="2.51" transform="translate(-14.06 46.49) rotate(-7.48)"/>
    <polygon class="st8" points="90.67 124.03 214.95 142.03 215.31 139.54 91.03 121.55 90.67 124.03"/>
    <rect class="st8" x="381.47" y="146.49" width="5.02" height="58.06" transform="translate(124.65 508.68) rotate(-76.67)"/>
    <rect class="st8" x="87.7" y="171.75" width="61.11" height="5.02" transform="translate(-41.19 36.68) rotate(-15.05)"/>
    <path class="st8" d="M97.6,243.45c-20.88,11.5-52.64,28.91-54.58,29.76l.96,2.32.93,2.33c2.12-.85,46.28-25.15,55.1-30.01l-2.42-4.4Z"/>
    <rect class="st8" x="75.69" y="310.38" width="75.29" height="5.02" transform="translate(-208.96 230.01) rotate(-55.67)"/>
    <rect class="st8" x="122.18" y="353.78" width="117.28" height="5.02" transform="translate(-212.78 424.98) rotate(-72.99)"/>
    <rect class="st8" x="246.51" y="318.11" width="5.02" height="162.88" transform="translate(-2.05 1.28) rotate(-.29)"/>
    <rect class="st8" x="315.77" y="306.4" width="5.02" height="112.76" transform="translate(-94.33 112.45) rotate(-17.49)"/>
    <rect class="st8" x="386.38" y="279.85" width="5.02" height="74.18" transform="translate(-110.21 266.12) rotate(-33.37)"/>
    <rect class="st8" x="424.36" y="225.78" width="5.02" height="68.11" transform="translate(-14.28 494.61) rotate(-59.35)"/>
    <path class="st12" d="M150.26,156.26l-5.85,2.1-68.63,114.24,157.34,52.3s8.77,4.6,17.57,4.6,169.06-56.9,169.06-56.9l-67.37-116.35-7.94-.83-194.18.83Z"/>
  </g>
  <g class="st1">
    <rect class="st23" x="170.85" y="89.72" width="159.68" height="159.68"/>
  </g>
  <path class="st20" d="M412.23,272.61l-139.77,42.68s-11.73,8.79-21.77-6.28c0,0-7.11,14.21-20.49,7.11l-145.22-46.45,65.28-113.41,23.85-7.94,71.56,41.43,79.09-41.43s19.68,5.85,19.68,7.1,67.79,117.18,67.79,117.18"/>
  <g class="st2">
    <rect class="st27" x="87.68" y="144.26" width="183.34" height="168.81" transform="translate(-77.37 364.86) rotate(-79.84)"/>
  </g>
  <g class="st17">
    <rect class="st19" x="246.78" y="144.96" width="147.16" height="167.41" transform="translate(-10.97 16.21) rotate(-2.85)"/>
  </g>
  <g class="st6">
    <rect class="st21" x="54.85" y="140.52" width="149.39" height="136.95" transform="translate(-116.08 220.34) rotate(-60.85)"/>
  </g>
  <g class="st7">
    <rect class="st25" x="299.78" y="134.83" width="137.43" height="151.27" transform="translate(-55.87 209.4) rotate(-29.59)"/>
  </g>
  <g>
    <path class="st8" d="M265.97,300.22s24.69-13.39,35.36-13.81c0,0-27.41-6.9-35.36,13.81"/>
    <path class="st8" d="M235.64,300.22s-24.69-13.39-35.36-13.81c0,0,27.41-6.9,35.36,13.81"/>
    <path class="st8" d="M246.62,359.91s-4.08-20.99-30.23-28.31c-21.2-5.94-56.83-2.94-69.57-1.59-2.92.31-5.45,2.11-6.72,4.76l-2.17,4.56,108.7,20.57Z"/>
    <path class="st10" d="M247.41,360.7l-110.41-20.89,2.52-5.3c1.37-2.87,4.06-4.79,7.21-5.12,13.98-1.48,48.75-4.29,69.81,1.6,26.22,7.34,30.64,28.58,30.68,28.79l.18.91ZM138.84,338.88l106.93,20.23c-1.17-4.09-7.21-20.65-29.55-26.9-20.84-5.84-55.43-3.04-69.34-1.57-2.71.29-5.03,1.94-6.21,4.41l-1.82,3.83Z"/>
    <path class="st8" d="M247.16,364.63s-1.06-25.29-31.82-25.29h-77.41s-2.51,1.47-3.35,5.44l112.58,19.85Z"/>
    <path class="st10" d="M247.82,365.39l-.77-.14-113.22-19.96.13-.63c.88-4.2,3.53-5.79,3.65-5.85l.15-.09h77.58c31,0,32.43,25.63,32.44,25.89l.03.78ZM135.35,344.28l111.12,19.6c-.46-4.28-4.03-23.91-31.12-23.91h-77.23c-.46.33-2.02,1.58-2.77,4.31"/>
    <path class="st8" d="M247.16,364.63s3.96-18.81-40.39-21.31c-44.36-2.51-72.39,0-72.39,0,0,0-8.79,3.77-10.04,11.09-1.26,7.32,122.83,10.23,122.83,10.23"/>
    <path class="st10" d="M247.66,365.27h-.52c-12-.29-117.43-2.96-123.1-9.84-.36-.44-.38-.86-.34-1.13,1.3-7.57,10.04-11.4,10.41-11.56l.19-.05c.28-.02,28.59-2.49,72.48,0,24.45,1.39,34.27,7.79,38.2,12.93,3.65,4.76,2.81,8.97,2.78,9.14l-.11.51ZM134.53,343.94c-.91.41-8.47,4.06-9.58,10.58,4.52,5.54,88.78,8.7,121.66,9.48.08-1.19-.03-4.28-2.64-7.66-3.78-4.91-13.32-11.04-37.24-12.39-42.46-2.41-70.28-.17-72.2,0"/>
    <path class="st8" d="M247.77,370.1l-138.3-3.56c3.27-9.18,11.9-15.36,21.65-15.49l100.1-1.34c8.1-.07,14.94,5.99,15.84,14.04l.71,6.34Z"/>
    <path class="st10" d="M248.47,370.75l-139.88-3.6.29-.82c3.34-9.38,12.27-15.77,22.23-15.91l100.1-1.33h.14c8.39,0,15.39,6.25,16.33,14.6l.79,7.06ZM110.37,365.94l136.7,3.52-.63-5.63c-.87-7.71-7.34-13.48-15.08-13.48h-.13l-100.09,1.34c-9.15.12-17.38,5.82-20.76,14.26"/>
    <path class="st8" d="M248.31,359.91s4.08-20.99,30.23-28.31c21.2-5.94,56.83-2.94,69.57-1.59,2.92.31,5.45,2.11,6.72,4.76l2.17,4.56-108.69,20.57Z"/>
    <path class="st10" d="M247.52,360.7l.17-.91c.04-.22,4.46-21.45,30.68-28.79,21.05-5.89,55.83-3.09,69.8-1.6,3.15.33,5.85,2.24,7.22,5.12l2.52,5.3-110.4,20.89ZM312.86,328.66c-12.06,0-24.55.86-34.15,3.54-22.35,6.26-28.38,22.82-29.55,26.9l106.92-20.23-1.82-3.83c-1.18-2.47-3.5-4.12-6.22-4.41-7.5-.8-21.04-1.98-35.19-1.98"/>
    <path class="st8" d="M247.77,364.63s1.06-25.29,31.82-25.29h77.41s2.51,1.47,3.35,5.44l-112.58,19.85Z"/>
    <path class="st10" d="M247.11,365.39l.03-.78c0-.26,1.44-25.89,32.44-25.89h77.58l.15.09c.11.06,2.76,1.65,3.65,5.85l.13.63-113.99,20.1ZM279.59,339.97c-27.1,0-30.67,19.62-31.12,23.9l111.12-19.59c-.75-2.72-2.3-3.98-2.76-4.31h-77.23Z"/>
    <path class="st8" d="M247.77,364.63s-3.96-18.81,40.39-21.31c44.36-2.51,72.39,0,72.39,0,0,0,8.79,3.77,10.04,11.09,1.26,7.32-122.83,10.23-122.83,10.23"/>
    <path class="st10" d="M247.26,365.27l-.11-.51c-.04-.18-.87-4.38,2.77-9.15,3.93-5.13,13.74-11.54,38.2-12.93,43.89-2.49,72.2-.02,72.48,0l.19.05c.37.16,9.11,3.99,10.41,11.56.05.27.03.69-.34,1.13-5.67,6.88-111.1,9.55-123.1,9.83h-.52ZM326.52,342.84c-10.71,0-23.64.27-38.32,1.11-23.92,1.35-33.45,7.49-37.24,12.39-2.61,3.38-2.71,6.47-2.64,7.66,32.87-.78,117.13-3.94,121.59-9.36-1.05-6.63-8.61-10.29-9.51-10.7-1.26-.11-13.6-1.1-33.88-1.1"/>
    <path class="st8" d="M247.16,370.1l138.3-3.56c-3.27-9.18-11.9-15.36-21.65-15.49l-100.1-1.34c-8.1-.07-14.94,5.99-15.84,14.04l-.71,6.34Z"/>
    <path class="st10" d="M246.45,370.75l.79-7.06c.94-8.35,7.94-14.6,16.32-14.6h.14l100.1,1.33c9.96.13,18.89,6.53,22.24,15.91l.29.82-139.88,3.6ZM263.57,350.35c-7.74,0-14.21,5.77-15.08,13.48l-.63,5.63,136.69-3.52c-3.38-8.44-11.62-14.14-20.76-14.26l-100.1-1.34h-.13Z"/>
    <path class="st8" d="M126,402.74c-9.69,0-17.57-7.88-17.57-17.57s7.89-17.58,17.57-17.58h246.89c9.69,0,17.57,7.89,17.57,17.58s-7.89,17.57-17.57,17.57H126Z"/>
    <path class="st12" d="M372.89,370.1c8.32,0,15.06,6.74,15.06,15.06s-6.74,15.06-15.06,15.06H126c-8.32,0-15.06-6.75-15.06-15.06s6.75-15.06,15.06-15.06h246.89M372.89,365.08H126c-11.08,0-20.09,9.01-20.09,20.09s9.01,20.08,20.09,20.08h246.89c11.08,0,20.09-9.01,20.09-20.08s-9.01-20.09-20.09-20.09"/>
    <path class="st12" d="M426.47,178.76v-104.82h-104.82l-62.87-62.87h-22.49l-62.87,62.87h-102.66v102.66l-61.92,61.91v21.34l61.92,61.94v104.8h104.82l62.32,62.34h23.6l62.32-62.34h102.66v-102.64l64.7-64.73v-15.77l-64.7-64.7ZM405.1,405.25h-90.14l-65.28,65.28-65.28-65.28h-92.29v-92.32l-39.27-39.27-3.72-3.69-20.79-20.79,63.77-63.75v-90.16h90.13l11.95-11.95,1.78-1.78,18.93-18.93,1.91-1.91,30.53-30.53.18-.18,2.34,2.34,30.26,30.25,20.41,20.42,1.76,1.76,10.52,10.52h92.29v92.32l63.77,63.75-19.13,19.13-3.67,3.67-40.97,40.95v90.16Z"/>
    <polygon class="st12" points="429.6 177.46 429.6 70.8 322.94 70.8 266.35 14.2 488.03 14.2 488.03 235.88 429.6 177.46"/>
    <path class="st8" d="M484.89,17.34v210.96l-52.15-52.15v-108.5h-108.5l-50.31-50.32h210.96ZM491.17,11.07h-232.39l62.87,62.87h104.82v104.82l64.7,64.7V11.07Z"/>
    <polygon class="st12" points="11.97 14.2 228.7 14.2 172.11 70.79 67.61 70.79 67.61 175.3 11.97 230.93 11.97 14.2"/>
    <path class="st8" d="M221.12,17.34l-50.31,50.32h-106.34v106.34l-49.36,49.36V17.34h206.01ZM236.28,11.07H8.83v227.45l61.91-61.91v-102.66h102.66l62.87-62.87Z"/>
    <polygon class="st12" points="11.97 485.79 11.97 267.43 67.61 323.09 67.61 429.73 174.27 429.73 230.31 485.79 11.97 485.79"/>
    <path class="st8" d="M15.11,275.01l49.36,49.38v108.47h108.5l49.77,49.79H15.11v-207.64ZM8.83,259.85v229.08h229.05l-62.31-62.34h-104.82v-104.8l-61.91-61.94Z"/>
    <polygon class="st12" points="269.06 485.79 325.1 429.73 429.61 429.73 429.61 325.25 488.03 266.8 488.03 485.79 269.06 485.79"/>
    <path class="st8" d="M484.89,274.38v208.27h-208.25l49.77-49.79h106.34v-106.32l52.15-52.17ZM491.17,259.23l-64.7,64.73v102.64h-102.66l-62.32,62.34h229.68v-229.71Z"/>
    <path class="st4" d="M268.18,221.62c2.08.29,3.96.76,5.66,1.38-.18,1.49-.55,3.04-1.18,4.65-1.85-.56-3.75-.99-5.63-1.33l1.16-4.7ZM279.49,226.14c3.18,2.75,5.76,5.9,7.39,9.77.76,1.81,1.08,4.31.97,6.79-.92,3.78-4.24,7.2-7.56,8.6-5.09,2.15-9.75.17-11.82-4.71-1.05-2.48-1.4-5.43-.96-8.95l1.75.08c-.15,2.08.06,3.89.51,4.96,2.18,5.16,7.06,3.89,8.75,3.18,2.67-1.13,5.24-3.73,6.12-5.83.2-.49.21-.97,0-1.49-.74-1.74-2.78-4-6.5-6.9.21-1.72.56-3.45,1.02-5.4l.34-.08Z"/>
    <path class="st4" d="M279.56,213.86l-2.18-1.42c-.66-2-.21-3.36,1.32-4.01,1.42-.6,3.8-.73,6.28-1.77,1.3-.55,2.23-1.44,2.82-2.69l.39.04.21,2.98c-.64,1.29-1.63,2.12-2.79,2.61-2.11.89-3.98,1.18-4.88,1.56-.26.11-.44.21-.46.31l-.28,2.2-.42.18ZM293.58,238.05c-.48-1.87-1.18-3.74-2.18-6.12-2.27-5.36-4.78-10.58-7.71-15.75.55-1.64,1.11-3.1,1.73-4.44l.54.03c2.79,5.14,4.99,10.12,7.02,14.93,1.65,3.9,2.51,6.6,2.29,7.69-.15,1.18-.46,2.45-.94,3.82l-.74-.15Z"/>
    <path class="st4" d="M313.65,229.22l-.45.19c-1.09.46-2.02.59-2.95.69,1.08,2.56.98,4.53.65,6.34-.54,2.77-1.65,4.93-3.81,5.85-1.95.83-4.53,1.07-8.06.51l.06-1.49c1.14-.1,1.98-.34,2.56-.58,2.22-.94,3.76-2.58,4.79-4.71,1.11-2.23,1.41-4.4,1.09-6.04-1.55-.8-3.2-1.89-4.87-3.35.04-1.6.12-3.09.32-4.46l.4-.17c2.59,2.29,4.86,3.68,7.81,2.43l.37-.16,2.1,4.96Z"/>
    <path class="st4" d="M309.14,202.32c1.64.51,3.09,1.12,4.31,1.81-.29,1.23-.8,2.44-1.52,3.62-1.43-.59-2.87-1.12-4.34-1.65l1.55-3.78ZM311.93,224.1c1.24-.52,2.36-1.11,3.23-1.72-.68-.88-1.3-1.9-1.8-3.09-1.15-2.73-.87-5.31.28-7.81.77-1.7,1.81-3.07,3.16-3.64,1.06-.45,2.18-.16,3.26.49,1.83,1.1,2.94,2.62,3.68,4.35.78,1.86.91,3.79.8,5.71,1.46-.38,2.79-.83,3.96-1.3l.37-.16,2.1,4.96-.37.16c-3.88,1.64-5.57,1.97-9.81,2.33-1.65,1.83-3.84,3.43-6.74,4.66l-.37.15c-1.27.54-2.39-.51-2.9-1.7-.51-1.19-.47-2.72.8-3.26l.37-.16ZM314.62,199.75c1.64.5,3.09,1.12,4.31,1.8-.29,1.23-.8,2.44-1.52,3.62-1.43-.59-2.87-1.12-4.34-1.64l1.55-3.78ZM319.68,219.48c2.05-1.63,2.96-3.44,2.62-4.26-.51-1.19-2.82-2.99-4.59-2.24-1.69.72-2.79,3.05-2.82,5.05.85,1.19,2.52,1.62,4.79,1.46"/>
    <path class="st4" d="M327.03,193.71c.69,1.64,2.54,3.22,5.7,5.4l-1.64,2.68c.92,1.86,1.95,4.18,2.98,6.61.93,2.21,1.25,4.06,1.34,5.89.05,1.09.01,2.16-.21,3.19-.48,1.75-1.51,3.27-3.89,4.28l-.37.15c-1.27.54-2.39-.51-2.9-1.7-.51-1.19-.47-2.73.8-3.26l.37-.16c1.69-.71,2.86-1.56,3.32-2.6.27-.62-.02-1.31-.59-2.65-2.61-6.18-5.81-11.31-6.33-12.55-.39-.92-.51-1.8-.26-2.61.25-.81.62-1.69,1.27-2.73l.4.06Z"/>
    <path class="st4" d="M344.44,216.56c-.48-1.87-1.18-3.74-2.18-6.12-2.26-5.36-4.78-10.58-7.71-15.75.55-1.63,1.11-3.1,1.73-4.44l.54.03c2.79,5.14,4.99,10.11,7.02,14.93,1.65,3.9,2.51,6.6,2.29,7.69-.16,1.18-.46,2.44-.94,3.82l-.75-.15Z"/>
    <path class="st4" d="M158.66,220.59c-2.8-.64-5.18-2.16-4.54-4.97.28-1.23.98-2.48,2.07-3.78,2.21-2.7,5.8-4.14,9.81-5.21l.23-1.41c1.09-.64,2.19-1.24,3.32-1.81l.42.23c-.46,2.63-1.15,5.76-2.06,9.75-.51,2.21-.89,3.89-.23,4.86.7.91,1.32,1.27,2.97,1.65l.39.09-1.2,5.25-.39-.09c-3.43-.79-4.8-1.74-5.46-4.38-1.84.21-3.63.19-5.33-.2M165.48,210.82c-4.36.82-7.33,2.1-7.58,3.18-.21.92,1.06,1.54,2.59,1.89,1.28.29,2.56.39,3.87.31.48-2.08.84-3.93,1.12-5.38M164.84,194.79c1.04,1.37,1.85,2.72,2.44,3.99-.96.83-2.08,1.51-3.35,2.05-.81-1.32-1.67-2.59-2.55-3.87l3.47-2.16ZM170.79,195.9c1.04,1.37,1.85,2.72,2.44,3.99-.96.83-2.09,1.51-3.36,2.05-.81-1.32-1.67-2.59-2.55-3.88l3.46-2.16Z"/>
    <path class="st4" d="M182.92,228.26l-.36-.08c-2.54-.58-4.81-1.6-5.74-4.33l-.08-.02c-1.94,1.52-4.06,2.08-6.49,1.52l-.39-.09c-1.34-.31-1.64-1.81-1.35-3.07.29-1.26,1.22-2.48,2.55-2.18l.39.09c1.87.43,2.96.29,4-.02,1.74-.54,2.26-2.19,3.16-3.25.74-.27,1.57-.58,2.55-.85l.16.2c-.59,1.03-.97,1.77-1.09,2.29-.29,1.23-.16,2.09.75,3.02.73.67,1.61,1.17,2.81,1.45l.33.07-1.2,5.25ZM179.85,206.55c1.26,1.29,2.34,2.61,3.29,3.99-.91,1.15-1.99,2.03-3.26,2.65-.93-1.2-2.1-2.5-3.38-3.84l3.34-2.8Z"/>
    <path class="st4" d="M211.53,234.82l-.39-.09c-3.13-.72-5.24-1.89-5.79-3.87l-.11-.03c-1.88,1.28-3.66,1.7-5.28,1.33-1.53-.35-2.43-1.33-2.59-2.94l-.14-.03c-1.83,1.07-3.28,1.6-5.12,1.17-1.4-.32-2.37-1.09-2.53-2.68-2,.9-4.12,1.15-6.27.66l-.39-.09c-1.34-.31-1.64-1.81-1.35-3.07.29-1.26,1.22-2.49,2.56-2.18l.39.09c2.35.54,4.03.49,5.27-.03.97-.39,1.81-1.24,3.04-2.23.81-.2,1.7-.38,2.67-.49l.24.34c-1.35,1.15-2.3,2.21-2.49,3.02-.22.97.25,1.47,1.14,1.67,1.26.29,2.15,0,2.89-.42,1.33-.77,1.78-1.86,2.8-2.95.85-.25,1.62-.4,2.5-.53l.16.31c-1.05,1.39-1.94,2.57-2.1,3.27-.26,1.13.13,1.77,1.02,1.97,1.34.31,2.3-.05,3.13-.69,1-.76,1.62-2.17,2.41-3.34.8-.29,1.6-.57,2.53-.77l.15.23c-.8,1.31-1.37,2.37-1.57,3.23-.42,1.84.83,3.06,4.01,3.79l.39.09-1.2,5.25Z"/>
    <path class="st4" d="M224.87,209.67c-.4,1.73.17,4.1,1.46,7.71l-2.89,1.21c-.35,2.05-.86,4.53-1.45,7.1-.54,2.34-1.37,4.03-2.36,5.57-.59.91-1.26,1.75-2.04,2.46-1.41,1.14-3.14,1.77-5.65,1.19l-.39-.09c-1.34-.31-1.64-1.81-1.35-3.07s1.21-2.48,2.56-2.17l.39.09c1.79.41,3.23.41,4.21-.17.58-.34.75-1.07,1.07-2.49,1.5-6.54,1.91-12.58,2.21-13.89.23-.97.64-1.76,1.31-2.27.68-.51,1.5-1.01,2.63-1.47l.29.29Z"/>
    <path class="st4" d="M225.6,238.38c.71-1.8,1.24-3.72,1.81-6.24,1.3-5.67,2.32-11.38,2.97-17.28,1.41-1,2.72-1.86,4-2.59l.42.34c-.74,5.8-1.88,11.12-3.05,16.21-.95,4.12-1.83,6.82-2.65,7.57-.82.86-1.81,1.71-3,2.54l-.51-.56Z"/>
    <path class="st4" d="M241.26,239.85c-4.3-.99-5.92-3.82-5.23-6.78.51-2.23,1.67-3.98,3.54-5.3,1.82-1.13,3.6-1.72,5.24-1.34,3.1.71,4.8,5.72,3.38,11.91-.88,3.83-2.67,6.4-4.99,8.44-3.12,2.43-5.46,2.92-7.44,2.46-2.68-.62-5.24-2.39-7.65-4.85l.92-1.31c.92.6,1.93,1.08,3.1,1.34,2.32.53,4.87.18,7.46-.86,2.1-.84,3.78-1.98,5-3.33-.92.04-2.14-.13-3.32-.4M242.5,230.52c-1.9-.44-3.33.31-3.53,1.18-.28,1.21,1.58,2.96,4.57,3.65.9.2,1.66.32,2.36.37-.16-2.52-1.69-4.81-3.39-5.2"/>
  </g>
</svg>